<mxfile host="app.diagrams.net" agent="Mozilla/5.0 (Windows NT 10.0; Win64; x64) AppleWebKit/537.36 (KHTML, like Gecko) Chrome/138.0.0.0 Safari/537.36" version="28.0.3">
  <diagram name="Page-1" id="90a13364-a465-7bf4-72fc-28e22215d7a0">
    <mxGraphModel dx="3431.5" dy="2101" grid="1" gridSize="10" guides="1" tooltips="1" connect="1" arrows="1" fold="1" page="1" pageScale="1.5" pageWidth="1169" pageHeight="826" background="none" math="0" shadow="0">
      <root>
        <mxCell id="0" style=";html=1;" />
        <mxCell id="1" style=";html=1;" parent="0" />
        <mxCell id="iKwgrwwHFy8eXeqNAH09-822" value="" style="group" vertex="1" connectable="0" parent="1">
          <mxGeometry x="586.5" width="580" height="460" as="geometry" />
        </mxCell>
        <mxCell id="iKwgrwwHFy8eXeqNAH09-606" value="" style="whiteSpace=wrap;html=1;shadow=1;fontSize=18;fillColor=#f5f5f5;strokeColor=#666666;" vertex="1" parent="iKwgrwwHFy8eXeqNAH09-822">
          <mxGeometry width="580" height="460" as="geometry" />
        </mxCell>
        <mxCell id="iKwgrwwHFy8eXeqNAH09-1135" style="edgeStyle=orthogonalEdgeStyle;rounded=0;orthogonalLoop=1;jettySize=auto;html=1;entryX=0.5;entryY=1;entryDx=0;entryDy=0;jumpStyle=arc;" edge="1" parent="iKwgrwwHFy8eXeqNAH09-822" source="iKwgrwwHFy8eXeqNAH09-1134" target="iKwgrwwHFy8eXeqNAH09-648">
          <mxGeometry relative="1" as="geometry">
            <mxPoint x="421.5" y="345" as="sourcePoint" />
            <mxPoint x="279" y="355" as="targetPoint" />
            <Array as="points">
              <mxPoint x="424" y="440" />
              <mxPoint x="232" y="440" />
              <mxPoint x="232" y="355" />
            </Array>
          </mxGeometry>
        </mxCell>
        <mxCell id="iKwgrwwHFy8eXeqNAH09-648" value="" style="shape=trapezoid;perimeter=trapezoidPerimeter;whiteSpace=wrap;html=1;fixedSize=1;shadow=1;strokeColor=#666666;align=center;verticalAlign=middle;fontFamily=Helvetica;fontSize=18;fillColor=#f5f5f5;rotation=90;container=0;fontColor=#000000;" vertex="1" parent="iKwgrwwHFy8eXeqNAH09-822">
          <mxGeometry x="251" y="345" width="80" height="20" as="geometry" />
        </mxCell>
        <mxCell id="iKwgrwwHFy8eXeqNAH09-671" style="edgeStyle=orthogonalEdgeStyle;rounded=0;orthogonalLoop=1;jettySize=auto;html=1;entryX=0.75;entryY=1;entryDx=0;entryDy=0;jumpStyle=arc;" edge="1" parent="iKwgrwwHFy8eXeqNAH09-822" source="iKwgrwwHFy8eXeqNAH09-672" target="iKwgrwwHFy8eXeqNAH09-662">
          <mxGeometry relative="1" as="geometry">
            <Array as="points">
              <mxPoint x="241" y="430" />
              <mxPoint x="464" y="430" />
              <mxPoint x="464" y="360" />
            </Array>
          </mxGeometry>
        </mxCell>
        <mxCell id="iKwgrwwHFy8eXeqNAH09-1049" style="edgeStyle=orthogonalEdgeStyle;rounded=0;orthogonalLoop=1;jettySize=auto;html=1;entryX=0;entryY=0.5;entryDx=0;entryDy=0;" edge="1" parent="iKwgrwwHFy8eXeqNAH09-822" source="iKwgrwwHFy8eXeqNAH09-1048" target="iKwgrwwHFy8eXeqNAH09-1043">
          <mxGeometry relative="1" as="geometry">
            <Array as="points">
              <mxPoint x="324" y="430" />
              <mxPoint x="324" y="360" />
            </Array>
          </mxGeometry>
        </mxCell>
        <mxCell id="iKwgrwwHFy8eXeqNAH09-1047" style="edgeStyle=orthogonalEdgeStyle;rounded=0;orthogonalLoop=1;jettySize=auto;html=1;entryX=0;entryY=0.75;entryDx=0;entryDy=0;" edge="1" parent="iKwgrwwHFy8eXeqNAH09-822" source="iKwgrwwHFy8eXeqNAH09-1046" target="iKwgrwwHFy8eXeqNAH09-1043">
          <mxGeometry relative="1" as="geometry">
            <Array as="points">
              <mxPoint x="331" y="375" />
            </Array>
          </mxGeometry>
        </mxCell>
        <mxCell id="iKwgrwwHFy8eXeqNAH09-607" style="edgeStyle=orthogonalEdgeStyle;rounded=0;orthogonalLoop=1;jettySize=auto;html=1;entryX=0;entryY=0.5;entryDx=0;entryDy=0;" edge="1" parent="iKwgrwwHFy8eXeqNAH09-822" source="iKwgrwwHFy8eXeqNAH09-609" target="iKwgrwwHFy8eXeqNAH09-611">
          <mxGeometry relative="1" as="geometry" />
        </mxCell>
        <mxCell id="iKwgrwwHFy8eXeqNAH09-608" style="edgeStyle=orthogonalEdgeStyle;rounded=0;orthogonalLoop=1;jettySize=auto;html=1;entryX=0.75;entryY=1;entryDx=0;entryDy=0;exitX=0.5;exitY=0;exitDx=0;exitDy=0;" edge="1" parent="iKwgrwwHFy8eXeqNAH09-822" source="iKwgrwwHFy8eXeqNAH09-609" target="iKwgrwwHFy8eXeqNAH09-619">
          <mxGeometry relative="1" as="geometry">
            <Array as="points">
              <mxPoint x="61" y="200" />
              <mxPoint x="131" y="200" />
            </Array>
          </mxGeometry>
        </mxCell>
        <mxCell id="iKwgrwwHFy8eXeqNAH09-609" value="&lt;div style=&quot;line-height: 80%;&quot;&gt;&lt;font style=&quot;font-size: 13px; line-height: 80%;&quot;&gt;Program&lt;/font&gt;&lt;div&gt;&lt;font style=&quot;font-size: 13px; line-height: 80%;&quot;&gt;Counter&lt;/font&gt;&lt;/div&gt;&lt;/div&gt;" style="whiteSpace=wrap;html=1;shadow=1;fontSize=18;fillColor=#f5f5f5;strokeColor=#666666;fontStyle=1" vertex="1" parent="iKwgrwwHFy8eXeqNAH09-822">
          <mxGeometry x="31" y="210" width="60" height="40" as="geometry" />
        </mxCell>
        <mxCell id="iKwgrwwHFy8eXeqNAH09-610" style="edgeStyle=orthogonalEdgeStyle;rounded=0;orthogonalLoop=1;jettySize=auto;html=1;entryX=0;entryY=0.5;entryDx=0;entryDy=0;" edge="1" parent="iKwgrwwHFy8eXeqNAH09-822" source="iKwgrwwHFy8eXeqNAH09-611" target="iKwgrwwHFy8eXeqNAH09-615">
          <mxGeometry relative="1" as="geometry" />
        </mxCell>
        <mxCell id="iKwgrwwHFy8eXeqNAH09-611" value="&lt;div style=&quot;line-height: 80%;&quot;&gt;&lt;font style=&quot;font-size: 13px; line-height: 80%;&quot;&gt;&lt;b&gt;Instruction&lt;/b&gt;&lt;/font&gt;&lt;div&gt;&lt;font style=&quot;font-size: 13px; line-height: 80%;&quot;&gt;&lt;b&gt;Memory&lt;/b&gt;&lt;/font&gt;&lt;/div&gt;&lt;/div&gt;" style="whiteSpace=wrap;html=1;shadow=1;fontSize=18;fillColor=#f5f5f5;strokeColor=#666666;align=center;" vertex="1" parent="iKwgrwwHFy8eXeqNAH09-822">
          <mxGeometry x="111" y="210" width="70" height="40" as="geometry" />
        </mxCell>
        <mxCell id="iKwgrwwHFy8eXeqNAH09-612" style="edgeStyle=orthogonalEdgeStyle;rounded=0;orthogonalLoop=1;jettySize=auto;html=1;entryX=0.5;entryY=1;entryDx=0;entryDy=0;" edge="1" parent="iKwgrwwHFy8eXeqNAH09-822" source="iKwgrwwHFy8eXeqNAH09-615" target="iKwgrwwHFy8eXeqNAH09-625">
          <mxGeometry relative="1" as="geometry" />
        </mxCell>
        <mxCell id="iKwgrwwHFy8eXeqNAH09-613" style="edgeStyle=orthogonalEdgeStyle;rounded=0;orthogonalLoop=1;jettySize=auto;html=1;entryX=0;entryY=0.25;entryDx=0;entryDy=0;" edge="1" parent="iKwgrwwHFy8eXeqNAH09-822" source="iKwgrwwHFy8eXeqNAH09-637" target="iKwgrwwHFy8eXeqNAH09-626">
          <mxGeometry relative="1" as="geometry">
            <Array as="points">
              <mxPoint x="301" y="290" />
            </Array>
          </mxGeometry>
        </mxCell>
        <mxCell id="iKwgrwwHFy8eXeqNAH09-614" style="edgeStyle=orthogonalEdgeStyle;rounded=0;orthogonalLoop=1;jettySize=auto;html=1;entryX=0.5;entryY=0;entryDx=0;entryDy=0;" edge="1" parent="iKwgrwwHFy8eXeqNAH09-822" source="iKwgrwwHFy8eXeqNAH09-615" target="iKwgrwwHFy8eXeqNAH09-621">
          <mxGeometry relative="1" as="geometry" />
        </mxCell>
        <mxCell id="iKwgrwwHFy8eXeqNAH09-615" value="&lt;div style=&quot;line-height: 80%;&quot;&gt;&lt;font style=&quot;font-size: 13px; line-height: 80%;&quot;&gt;&lt;b&gt;Instruction&lt;/b&gt;&lt;/font&gt;&lt;div&gt;&lt;font style=&quot;font-size: 13px; line-height: 80%;&quot;&gt;&lt;b&gt;Decoder&lt;/b&gt;&lt;/font&gt;&lt;/div&gt;&lt;/div&gt;" style="whiteSpace=wrap;html=1;shadow=1;fontSize=18;fillColor=#f5f5f5;strokeColor=#666666;align=center;" vertex="1" parent="iKwgrwwHFy8eXeqNAH09-822">
          <mxGeometry x="201" y="210" width="80" height="40" as="geometry" />
        </mxCell>
        <mxCell id="iKwgrwwHFy8eXeqNAH09-616" style="edgeStyle=orthogonalEdgeStyle;rounded=0;orthogonalLoop=1;jettySize=auto;html=1;entryX=0;entryY=0.5;entryDx=0;entryDy=0;exitX=0;exitY=0.5;exitDx=0;exitDy=0;" edge="1" parent="iKwgrwwHFy8eXeqNAH09-822" source="iKwgrwwHFy8eXeqNAH09-617" target="iKwgrwwHFy8eXeqNAH09-609">
          <mxGeometry relative="1" as="geometry">
            <mxPoint x="46" y="225" as="targetPoint" />
            <Array as="points">
              <mxPoint x="11" y="170" />
              <mxPoint x="11" y="230" />
            </Array>
          </mxGeometry>
        </mxCell>
        <mxCell id="iKwgrwwHFy8eXeqNAH09-617" value="&lt;div style=&quot;line-height: 80%;&quot;&gt;&lt;font style=&quot;font-size: 13px; line-height: 80%;&quot;&gt;PC&lt;/font&gt;&lt;div&gt;&lt;font style=&quot;font-size: 13px; line-height: 80%;&quot;&gt;Aligner&lt;/font&gt;&lt;/div&gt;&lt;/div&gt;" style="whiteSpace=wrap;html=1;shadow=1;fontSize=18;fillColor=#f5f5f5;strokeColor=#666666;fontStyle=1" vertex="1" parent="iKwgrwwHFy8eXeqNAH09-822">
          <mxGeometry x="31" y="150" width="50" height="40" as="geometry" />
        </mxCell>
        <mxCell id="iKwgrwwHFy8eXeqNAH09-618" style="edgeStyle=orthogonalEdgeStyle;rounded=0;orthogonalLoop=1;jettySize=auto;html=1;entryX=1;entryY=0.5;entryDx=0;entryDy=0;" edge="1" parent="iKwgrwwHFy8eXeqNAH09-822" source="iKwgrwwHFy8eXeqNAH09-619" target="iKwgrwwHFy8eXeqNAH09-617">
          <mxGeometry relative="1" as="geometry" />
        </mxCell>
        <mxCell id="iKwgrwwHFy8eXeqNAH09-619" value="&lt;div style=&quot;line-height: 80%;&quot;&gt;&lt;font style=&quot;font-size: 13px; line-height: 80%;&quot;&gt;PC&lt;/font&gt;&lt;div&gt;&lt;font style=&quot;font-size: 13px; line-height: 80%;&quot;&gt;Controller&lt;/font&gt;&lt;/div&gt;&lt;/div&gt;" style="whiteSpace=wrap;html=1;shadow=1;fontSize=18;fillColor=#f5f5f5;strokeColor=#666666;fontStyle=1" vertex="1" parent="iKwgrwwHFy8eXeqNAH09-822">
          <mxGeometry x="71" y="100" width="80" height="40" as="geometry" />
        </mxCell>
        <mxCell id="iKwgrwwHFy8eXeqNAH09-620" style="edgeStyle=orthogonalEdgeStyle;rounded=0;orthogonalLoop=1;jettySize=auto;html=1;entryX=0.25;entryY=1;entryDx=0;entryDy=0;" edge="1" parent="iKwgrwwHFy8eXeqNAH09-822" source="iKwgrwwHFy8eXeqNAH09-621" target="iKwgrwwHFy8eXeqNAH09-648">
          <mxGeometry relative="1" as="geometry">
            <mxPoint x="281" y="330" as="targetPoint" />
            <Array as="points">
              <mxPoint x="241" y="335" />
            </Array>
          </mxGeometry>
        </mxCell>
        <mxCell id="iKwgrwwHFy8eXeqNAH09-621" value="&lt;div style=&quot;line-height: 80%;&quot;&gt;&lt;span style=&quot;font-size: 13px;&quot;&gt;&lt;b&gt;Immediate&lt;/b&gt;&lt;/span&gt;&lt;/div&gt;&lt;div style=&quot;line-height: 80%;&quot;&gt;&lt;span style=&quot;font-size: 13px;&quot;&gt;&lt;b&gt;Generator&lt;/b&gt;&lt;/span&gt;&lt;/div&gt;" style="whiteSpace=wrap;html=1;shadow=1;fontSize=18;fillColor=#f5f5f5;strokeColor=#666666;align=center;" vertex="1" parent="iKwgrwwHFy8eXeqNAH09-822">
          <mxGeometry x="201" y="270" width="80" height="40" as="geometry" />
        </mxCell>
        <mxCell id="iKwgrwwHFy8eXeqNAH09-622" value="&lt;div style=&quot;line-height: 80%;&quot;&gt;&lt;span style=&quot;font-size: 13px;&quot;&gt;PC+4&lt;/span&gt;&lt;/div&gt;" style="whiteSpace=wrap;html=1;shadow=1;fontSize=18;fillColor=#f5f5f5;strokeColor=#666666;fontStyle=1" vertex="1" parent="iKwgrwwHFy8eXeqNAH09-822">
          <mxGeometry x="51" y="260" width="40" height="20" as="geometry" />
        </mxCell>
        <mxCell id="iKwgrwwHFy8eXeqNAH09-623" style="edgeStyle=orthogonalEdgeStyle;rounded=0;orthogonalLoop=1;jettySize=auto;html=1;entryX=1;entryY=0.5;entryDx=0;entryDy=0;" edge="1" parent="iKwgrwwHFy8eXeqNAH09-822" source="iKwgrwwHFy8eXeqNAH09-625" target="iKwgrwwHFy8eXeqNAH09-619">
          <mxGeometry relative="1" as="geometry">
            <mxPoint x="161" y="120" as="targetPoint" />
          </mxGeometry>
        </mxCell>
        <mxCell id="iKwgrwwHFy8eXeqNAH09-624" style="edgeStyle=orthogonalEdgeStyle;rounded=0;orthogonalLoop=1;jettySize=auto;html=1;entryX=0;entryY=0.5;entryDx=0;entryDy=0;" edge="1" parent="iKwgrwwHFy8eXeqNAH09-822" source="iKwgrwwHFy8eXeqNAH09-625" target="iKwgrwwHFy8eXeqNAH09-632">
          <mxGeometry relative="1" as="geometry">
            <Array as="points">
              <mxPoint x="291" y="100" />
              <mxPoint x="291" y="170" />
            </Array>
          </mxGeometry>
        </mxCell>
        <mxCell id="iKwgrwwHFy8eXeqNAH09-625" value="&lt;div style=&quot;line-height: 80%;&quot;&gt;&lt;span style=&quot;font-size: 13px;&quot;&gt;&lt;b&gt;Control&lt;/b&gt;&lt;/span&gt;&lt;/div&gt;&lt;div style=&quot;line-height: 80%;&quot;&gt;&lt;span style=&quot;font-size: 13px;&quot;&gt;&lt;b&gt;Unit&lt;/b&gt;&lt;/span&gt;&lt;/div&gt;" style="whiteSpace=wrap;html=1;shadow=1;fontSize=18;fillColor=#f5f5f5;strokeColor=#666666;align=center;" vertex="1" parent="iKwgrwwHFy8eXeqNAH09-822">
          <mxGeometry x="211" y="80" width="60" height="80" as="geometry" />
        </mxCell>
        <mxCell id="iKwgrwwHFy8eXeqNAH09-626" value="&lt;div style=&quot;line-height: 80%;&quot;&gt;&lt;span style=&quot;font-size: 13px;&quot;&gt;&lt;b&gt;Register&lt;/b&gt;&lt;/span&gt;&lt;/div&gt;&lt;div style=&quot;line-height: 80%;&quot;&gt;&lt;span style=&quot;font-size: 13px;&quot;&gt;&lt;b&gt;File&lt;/b&gt;&lt;/span&gt;&lt;/div&gt;" style="whiteSpace=wrap;html=1;shadow=1;fontSize=18;fillColor=#f5f5f5;strokeColor=#666666;align=center;" vertex="1" parent="iKwgrwwHFy8eXeqNAH09-822">
          <mxGeometry x="353.5" y="280" width="60" height="40" as="geometry" />
        </mxCell>
        <mxCell id="iKwgrwwHFy8eXeqNAH09-627" value="&lt;div style=&quot;line-height: 80%;&quot;&gt;&lt;span style=&quot;font-size: 13px;&quot;&gt;&lt;b&gt;ALU&lt;/b&gt;&lt;/span&gt;&lt;/div&gt;&lt;div style=&quot;line-height: 80%;&quot;&gt;&lt;span style=&quot;font-size: 13px;&quot;&gt;&lt;b&gt;Controller&lt;/b&gt;&lt;/span&gt;&lt;/div&gt;" style="whiteSpace=wrap;html=1;shadow=1;fontSize=18;fillColor=#f5f5f5;strokeColor=#666666;align=center;" vertex="1" parent="iKwgrwwHFy8eXeqNAH09-822">
          <mxGeometry x="321" y="210" width="80" height="40" as="geometry" />
        </mxCell>
        <mxCell id="iKwgrwwHFy8eXeqNAH09-628" style="edgeStyle=orthogonalEdgeStyle;rounded=0;orthogonalLoop=1;jettySize=auto;html=1;entryX=0.75;entryY=1;entryDx=0;entryDy=0;exitX=0.5;exitY=1;exitDx=0;exitDy=0;jumpStyle=arc;" edge="1" parent="iKwgrwwHFy8eXeqNAH09-822" source="iKwgrwwHFy8eXeqNAH09-629">
          <mxGeometry relative="1" as="geometry">
            <mxPoint x="541" y="290" as="sourcePoint" />
            <mxPoint x="281" y="365" as="targetPoint" />
            <Array as="points">
              <mxPoint x="541" y="420" />
              <mxPoint x="251" y="420" />
              <mxPoint x="251" y="365" />
            </Array>
          </mxGeometry>
        </mxCell>
        <mxCell id="iKwgrwwHFy8eXeqNAH09-629" value="&lt;div style=&quot;line-height: 80%;&quot;&gt;&lt;span style=&quot;font-size: 13px;&quot;&gt;&lt;b&gt;ALU&lt;/b&gt;&lt;/span&gt;&lt;/div&gt;" style="whiteSpace=wrap;html=1;shadow=1;fontSize=18;fillColor=#f5f5f5;strokeColor=#666666;align=center;" vertex="1" parent="iKwgrwwHFy8eXeqNAH09-822">
          <mxGeometry x="511" y="200" width="60" height="100" as="geometry" />
        </mxCell>
        <mxCell id="iKwgrwwHFy8eXeqNAH09-630" style="edgeStyle=orthogonalEdgeStyle;rounded=0;orthogonalLoop=1;jettySize=auto;html=1;entryX=0.5;entryY=0;entryDx=0;entryDy=0;" edge="1" parent="iKwgrwwHFy8eXeqNAH09-822" source="iKwgrwwHFy8eXeqNAH09-631" target="iKwgrwwHFy8eXeqNAH09-632">
          <mxGeometry relative="1" as="geometry" />
        </mxCell>
        <mxCell id="iKwgrwwHFy8eXeqNAH09-631" value="&lt;div style=&quot;line-height: 80%;&quot;&gt;&lt;span style=&quot;font-size: 13px;&quot;&gt;&lt;b&gt;Data&lt;br&gt;Memory&lt;/b&gt;&lt;/span&gt;&lt;/div&gt;" style="whiteSpace=wrap;html=1;shadow=1;fontSize=18;fillColor=#f5f5f5;strokeColor=#666666;align=center;" vertex="1" parent="iKwgrwwHFy8eXeqNAH09-822">
          <mxGeometry x="311" y="80" width="80" height="40" as="geometry" />
        </mxCell>
        <mxCell id="iKwgrwwHFy8eXeqNAH09-632" value="&lt;div style=&quot;line-height: 80%;&quot;&gt;&lt;span style=&quot;font-size: 13px;&quot;&gt;&lt;b&gt;Byte Enable&lt;br&gt;Logic&lt;/b&gt;&lt;/span&gt;&lt;/div&gt;" style="whiteSpace=wrap;html=1;shadow=1;fontSize=18;fillColor=#f5f5f5;strokeColor=#666666;align=center;" vertex="1" parent="iKwgrwwHFy8eXeqNAH09-822">
          <mxGeometry x="311" y="150" width="80" height="40" as="geometry" />
        </mxCell>
        <mxCell id="iKwgrwwHFy8eXeqNAH09-633" style="edgeStyle=orthogonalEdgeStyle;rounded=0;orthogonalLoop=1;jettySize=auto;html=1;entryX=0.75;entryY=0;entryDx=0;entryDy=0;" edge="1" parent="iKwgrwwHFy8eXeqNAH09-822" source="iKwgrwwHFy8eXeqNAH09-634" target="iKwgrwwHFy8eXeqNAH09-619">
          <mxGeometry relative="1" as="geometry">
            <Array as="points">
              <mxPoint x="451" y="70" />
              <mxPoint x="131" y="70" />
            </Array>
          </mxGeometry>
        </mxCell>
        <mxCell id="iKwgrwwHFy8eXeqNAH09-634" value="&lt;div style=&quot;line-height: 80%;&quot;&gt;&lt;span style=&quot;font-size: 13px;&quot;&gt;&lt;b&gt;Branch&lt;/b&gt;&lt;/span&gt;&lt;/div&gt;&lt;div style=&quot;line-height: 80%;&quot;&gt;&lt;span style=&quot;font-size: 13px;&quot;&gt;&lt;b&gt;Logic&lt;/b&gt;&lt;/span&gt;&lt;/div&gt;" style="whiteSpace=wrap;html=1;shadow=1;fontSize=18;fillColor=#f5f5f5;strokeColor=#666666;align=center;" vertex="1" parent="iKwgrwwHFy8eXeqNAH09-822">
          <mxGeometry x="421" y="100" width="60" height="50" as="geometry" />
        </mxCell>
        <mxCell id="iKwgrwwHFy8eXeqNAH09-635" style="edgeStyle=orthogonalEdgeStyle;rounded=0;orthogonalLoop=1;jettySize=auto;html=1;entryX=0;entryY=0.5;entryDx=0;entryDy=0;" edge="1" parent="iKwgrwwHFy8eXeqNAH09-822" source="iKwgrwwHFy8eXeqNAH09-636" target="iKwgrwwHFy8eXeqNAH09-622">
          <mxGeometry relative="1" as="geometry">
            <Array as="points">
              <mxPoint x="11" y="230" />
              <mxPoint x="11" y="270" />
            </Array>
          </mxGeometry>
        </mxCell>
        <mxCell id="iKwgrwwHFy8eXeqNAH09-636" value="" style="shape=waypoint;sketch=0;size=6;pointerEvents=1;points=[];fillColor=none;resizable=0;rotatable=0;perimeter=centerPerimeter;snapToPoint=1;" vertex="1" parent="iKwgrwwHFy8eXeqNAH09-822">
          <mxGeometry x="1" y="220" width="20" height="20" as="geometry" />
        </mxCell>
        <mxCell id="iKwgrwwHFy8eXeqNAH09-637" value="" style="shape=waypoint;sketch=0;size=6;pointerEvents=1;points=[];fillColor=none;resizable=0;rotatable=0;perimeter=centerPerimeter;snapToPoint=1;" vertex="1" parent="iKwgrwwHFy8eXeqNAH09-822">
          <mxGeometry x="291" y="220" width="20" height="20" as="geometry" />
        </mxCell>
        <mxCell id="iKwgrwwHFy8eXeqNAH09-638" style="edgeStyle=orthogonalEdgeStyle;rounded=0;orthogonalLoop=1;jettySize=auto;html=1;entryX=0;entryY=0.5;entryDx=0;entryDy=0;" edge="1" parent="iKwgrwwHFy8eXeqNAH09-822" source="iKwgrwwHFy8eXeqNAH09-639" target="iKwgrwwHFy8eXeqNAH09-631">
          <mxGeometry relative="1" as="geometry">
            <Array as="points">
              <mxPoint x="291" y="100" />
            </Array>
          </mxGeometry>
        </mxCell>
        <mxCell id="iKwgrwwHFy8eXeqNAH09-639" value="" style="shape=waypoint;sketch=0;size=6;pointerEvents=1;points=[];fillColor=none;resizable=0;rotatable=0;perimeter=centerPerimeter;snapToPoint=1;" vertex="1" parent="iKwgrwwHFy8eXeqNAH09-822">
          <mxGeometry x="281" y="90" width="20" height="20" as="geometry" />
        </mxCell>
        <mxCell id="iKwgrwwHFy8eXeqNAH09-640" style="edgeStyle=orthogonalEdgeStyle;rounded=0;orthogonalLoop=1;jettySize=auto;html=1;entryX=0.5;entryY=0;entryDx=0;entryDy=0;" edge="1" parent="iKwgrwwHFy8eXeqNAH09-822" source="iKwgrwwHFy8eXeqNAH09-641" target="iKwgrwwHFy8eXeqNAH09-619">
          <mxGeometry relative="1" as="geometry">
            <mxPoint x="121" y="100" as="targetPoint" />
            <Array as="points">
              <mxPoint x="541" y="60" />
              <mxPoint x="111" y="60" />
            </Array>
          </mxGeometry>
        </mxCell>
        <mxCell id="iKwgrwwHFy8eXeqNAH09-641" value="" style="shape=waypoint;sketch=0;size=6;pointerEvents=1;points=[];fillColor=none;resizable=0;rotatable=0;perimeter=centerPerimeter;snapToPoint=1;" vertex="1" parent="iKwgrwwHFy8eXeqNAH09-822">
          <mxGeometry x="531" y="80" width="20" height="20" as="geometry" />
        </mxCell>
        <mxCell id="iKwgrwwHFy8eXeqNAH09-642" value="" style="shape=waypoint;sketch=0;size=6;pointerEvents=1;points=[];fillColor=none;resizable=0;rotatable=0;perimeter=centerPerimeter;snapToPoint=1;" vertex="1" parent="iKwgrwwHFy8eXeqNAH09-822">
          <mxGeometry x="281" y="125" width="20" height="20" as="geometry" />
        </mxCell>
        <mxCell id="iKwgrwwHFy8eXeqNAH09-643" style="edgeStyle=orthogonalEdgeStyle;rounded=0;orthogonalLoop=1;jettySize=auto;html=1;entryX=0;entryY=0.5;entryDx=0;entryDy=0;jumpStyle=arc;" edge="1" parent="iKwgrwwHFy8eXeqNAH09-822" source="iKwgrwwHFy8eXeqNAH09-642" target="iKwgrwwHFy8eXeqNAH09-634">
          <mxGeometry relative="1" as="geometry" />
        </mxCell>
        <mxCell id="iKwgrwwHFy8eXeqNAH09-644" style="edgeStyle=orthogonalEdgeStyle;rounded=0;orthogonalLoop=1;jettySize=auto;html=1;entryX=1;entryY=0.25;entryDx=0;entryDy=0;" edge="1" parent="iKwgrwwHFy8eXeqNAH09-822" source="iKwgrwwHFy8eXeqNAH09-656" target="iKwgrwwHFy8eXeqNAH09-632">
          <mxGeometry relative="1" as="geometry">
            <Array as="points" />
          </mxGeometry>
        </mxCell>
        <mxCell id="iKwgrwwHFy8eXeqNAH09-645" value="" style="shape=waypoint;sketch=0;size=6;pointerEvents=1;points=[];fillColor=none;resizable=0;rotatable=0;perimeter=centerPerimeter;snapToPoint=1;" vertex="1" parent="iKwgrwwHFy8eXeqNAH09-822">
          <mxGeometry x="531" y="115" width="20" height="20" as="geometry" />
        </mxCell>
        <mxCell id="iKwgrwwHFy8eXeqNAH09-646" style="edgeStyle=orthogonalEdgeStyle;rounded=0;orthogonalLoop=1;jettySize=auto;html=1;entryX=1;entryY=0.5;entryDx=0;entryDy=0;jumpStyle=arc;" edge="1" parent="iKwgrwwHFy8eXeqNAH09-822" source="iKwgrwwHFy8eXeqNAH09-645" target="iKwgrwwHFy8eXeqNAH09-631">
          <mxGeometry relative="1" as="geometry">
            <Array as="points">
              <mxPoint x="541" y="90" />
              <mxPoint x="411" y="90" />
              <mxPoint x="411" y="100" />
            </Array>
          </mxGeometry>
        </mxCell>
        <mxCell id="iKwgrwwHFy8eXeqNAH09-650" style="edgeStyle=orthogonalEdgeStyle;rounded=0;orthogonalLoop=1;jettySize=auto;html=1;entryX=0;entryY=0.5;entryDx=0;entryDy=0;" edge="1" parent="iKwgrwwHFy8eXeqNAH09-822" source="iKwgrwwHFy8eXeqNAH09-651" target="iKwgrwwHFy8eXeqNAH09-648">
          <mxGeometry relative="1" as="geometry" />
        </mxCell>
        <mxCell id="iKwgrwwHFy8eXeqNAH09-651" value="" style="shape=waypoint;sketch=0;size=6;pointerEvents=1;points=[];fillColor=none;resizable=0;rotatable=0;perimeter=centerPerimeter;snapToPoint=1;" vertex="1" parent="iKwgrwwHFy8eXeqNAH09-822">
          <mxGeometry x="281" y="160" width="20" height="20" as="geometry" />
        </mxCell>
        <mxCell id="iKwgrwwHFy8eXeqNAH09-652" style="edgeStyle=orthogonalEdgeStyle;rounded=0;orthogonalLoop=1;jettySize=auto;html=1;entryX=0;entryY=0.5;entryDx=0;entryDy=0;jumpStyle=arc;" edge="1" parent="iKwgrwwHFy8eXeqNAH09-822" source="iKwgrwwHFy8eXeqNAH09-615" target="iKwgrwwHFy8eXeqNAH09-627">
          <mxGeometry relative="1" as="geometry">
            <Array as="points">
              <mxPoint x="311" y="230" />
              <mxPoint x="311" y="230" />
            </Array>
          </mxGeometry>
        </mxCell>
        <mxCell id="iKwgrwwHFy8eXeqNAH09-653" value="" style="endArrow=classic;html=1;rounded=0;exitX=0.5;exitY=0;exitDx=0;exitDy=0;entryX=0;entryY=0.75;entryDx=0;entryDy=0;edgeStyle=orthogonalEdgeStyle;" edge="1" parent="iKwgrwwHFy8eXeqNAH09-822" source="iKwgrwwHFy8eXeqNAH09-648" target="iKwgrwwHFy8eXeqNAH09-626">
          <mxGeometry width="50" height="50" relative="1" as="geometry">
            <mxPoint x="311" y="370" as="sourcePoint" />
            <mxPoint x="361" y="320" as="targetPoint" />
            <Array as="points">
              <mxPoint x="314" y="355" />
              <mxPoint x="314" y="310" />
            </Array>
          </mxGeometry>
        </mxCell>
        <mxCell id="iKwgrwwHFy8eXeqNAH09-654" style="edgeStyle=orthogonalEdgeStyle;rounded=0;orthogonalLoop=1;jettySize=auto;html=1;entryX=1;entryY=0.5;entryDx=0;entryDy=0;jumpStyle=arc;exitX=0.5;exitY=0;exitDx=0;exitDy=0;" edge="1" parent="iKwgrwwHFy8eXeqNAH09-822" source="iKwgrwwHFy8eXeqNAH09-629" target="iKwgrwwHFy8eXeqNAH09-634">
          <mxGeometry relative="1" as="geometry">
            <Array as="points">
              <mxPoint x="541" y="125" />
            </Array>
          </mxGeometry>
        </mxCell>
        <mxCell id="iKwgrwwHFy8eXeqNAH09-655" style="edgeStyle=orthogonalEdgeStyle;rounded=0;orthogonalLoop=1;jettySize=auto;html=1;entryX=0.75;entryY=1;entryDx=0;entryDy=0;exitX=1;exitY=0.5;exitDx=0;exitDy=0;jumpStyle=arc;" edge="1" parent="iKwgrwwHFy8eXeqNAH09-822" source="iKwgrwwHFy8eXeqNAH09-632" target="iKwgrwwHFy8eXeqNAH09-648">
          <mxGeometry relative="1" as="geometry">
            <Array as="points">
              <mxPoint x="444" y="170" />
              <mxPoint x="444" y="410" />
              <mxPoint x="261" y="410" />
              <mxPoint x="261" y="375" />
            </Array>
          </mxGeometry>
        </mxCell>
        <mxCell id="iKwgrwwHFy8eXeqNAH09-656" value="" style="shape=waypoint;sketch=0;size=6;pointerEvents=1;points=[];fillColor=none;resizable=0;rotatable=0;perimeter=centerPerimeter;snapToPoint=1;" vertex="1" parent="iKwgrwwHFy8eXeqNAH09-822">
          <mxGeometry x="531" y="150" width="20" height="20" as="geometry" />
        </mxCell>
        <mxCell id="iKwgrwwHFy8eXeqNAH09-660" value="" style="shape=waypoint;sketch=0;size=6;pointerEvents=1;points=[];fillColor=none;resizable=0;rotatable=0;perimeter=centerPerimeter;snapToPoint=1;" vertex="1" parent="iKwgrwwHFy8eXeqNAH09-822">
          <mxGeometry x="1" y="260" width="20" height="20" as="geometry" />
        </mxCell>
        <mxCell id="iKwgrwwHFy8eXeqNAH09-664" style="edgeStyle=orthogonalEdgeStyle;rounded=0;orthogonalLoop=1;jettySize=auto;html=1;entryX=0;entryY=0.5;entryDx=0;entryDy=0;jumpStyle=arc;" edge="1" parent="iKwgrwwHFy8eXeqNAH09-822" source="iKwgrwwHFy8eXeqNAH09-665" target="iKwgrwwHFy8eXeqNAH09-658">
          <mxGeometry relative="1" as="geometry" />
        </mxCell>
        <mxCell id="iKwgrwwHFy8eXeqNAH09-665" value="" style="shape=waypoint;sketch=0;size=6;pointerEvents=1;points=[];fillColor=none;resizable=0;rotatable=0;perimeter=centerPerimeter;snapToPoint=1;" vertex="1" parent="iKwgrwwHFy8eXeqNAH09-822">
          <mxGeometry x="281" y="190" width="20" height="20" as="geometry" />
        </mxCell>
        <mxCell id="iKwgrwwHFy8eXeqNAH09-666" style="edgeStyle=orthogonalEdgeStyle;rounded=0;orthogonalLoop=1;jettySize=auto;html=1;entryX=0;entryY=0.5;entryDx=0;entryDy=0;" edge="1" parent="iKwgrwwHFy8eXeqNAH09-822" source="iKwgrwwHFy8eXeqNAH09-667" target="iKwgrwwHFy8eXeqNAH09-662">
          <mxGeometry relative="1" as="geometry">
            <Array as="points">
              <mxPoint x="491" y="200" />
            </Array>
          </mxGeometry>
        </mxCell>
        <mxCell id="iKwgrwwHFy8eXeqNAH09-667" value="" style="shape=waypoint;sketch=0;size=6;pointerEvents=1;points=[];fillColor=none;resizable=0;rotatable=0;perimeter=centerPerimeter;snapToPoint=1;" vertex="1" parent="iKwgrwwHFy8eXeqNAH09-822">
          <mxGeometry x="461" y="190" width="20" height="20" as="geometry" />
        </mxCell>
        <mxCell id="iKwgrwwHFy8eXeqNAH09-668" style="rounded=0;orthogonalLoop=1;jettySize=auto;html=1;entryX=0;entryY=0.8;entryDx=0;entryDy=0;entryPerimeter=0;jumpStyle=arc;" edge="1" parent="iKwgrwwHFy8eXeqNAH09-822" source="iKwgrwwHFy8eXeqNAH09-658" target="iKwgrwwHFy8eXeqNAH09-629">
          <mxGeometry relative="1" as="geometry">
            <mxPoint x="491" y="280" as="targetPoint" />
          </mxGeometry>
        </mxCell>
        <mxCell id="iKwgrwwHFy8eXeqNAH09-669" value="" style="endArrow=classic;html=1;rounded=0;entryX=0;entryY=0.25;entryDx=0;entryDy=0;jumpStyle=arc;" edge="1" parent="iKwgrwwHFy8eXeqNAH09-822" target="iKwgrwwHFy8eXeqNAH09-629">
          <mxGeometry width="50" height="50" relative="1" as="geometry">
            <mxPoint x="401" y="225" as="sourcePoint" />
            <mxPoint x="421" y="225" as="targetPoint" />
          </mxGeometry>
        </mxCell>
        <mxCell id="iKwgrwwHFy8eXeqNAH09-670" style="edgeStyle=orthogonalEdgeStyle;rounded=0;orthogonalLoop=1;jettySize=auto;html=1;entryX=0;entryY=0.5;entryDx=0;entryDy=0;jumpStyle=arc;exitX=1;exitY=0.25;exitDx=0;exitDy=0;" edge="1" parent="iKwgrwwHFy8eXeqNAH09-822" source="iKwgrwwHFy8eXeqNAH09-626" target="iKwgrwwHFy8eXeqNAH09-659">
          <mxGeometry relative="1" as="geometry">
            <Array as="points">
              <mxPoint x="424" y="290" />
              <mxPoint x="424" y="280" />
            </Array>
            <mxPoint x="383.5" y="279.9999999999998" as="sourcePoint" />
            <mxPoint x="461" y="272.4999999999998" as="targetPoint" />
          </mxGeometry>
        </mxCell>
        <mxCell id="iKwgrwwHFy8eXeqNAH09-672" value="" style="shape=waypoint;sketch=0;size=6;pointerEvents=1;points=[];fillColor=none;resizable=0;rotatable=0;perimeter=centerPerimeter;snapToPoint=1;" vertex="1" parent="iKwgrwwHFy8eXeqNAH09-822">
          <mxGeometry x="231" y="325" width="20" height="20" as="geometry" />
        </mxCell>
        <mxCell id="iKwgrwwHFy8eXeqNAH09-673" style="edgeStyle=orthogonalEdgeStyle;rounded=0;orthogonalLoop=1;jettySize=auto;html=1;entryX=0.25;entryY=1;entryDx=0;entryDy=0;" edge="1" parent="iKwgrwwHFy8eXeqNAH09-822" source="iKwgrwwHFy8eXeqNAH09-663" target="iKwgrwwHFy8eXeqNAH09-629">
          <mxGeometry relative="1" as="geometry" />
        </mxCell>
        <mxCell id="iKwgrwwHFy8eXeqNAH09-674" style="edgeStyle=orthogonalEdgeStyle;rounded=0;orthogonalLoop=1;jettySize=auto;html=1;entryX=0.25;entryY=1;entryDx=0;entryDy=0;exitX=0.5;exitY=1;exitDx=0;exitDy=0;jumpStyle=arc;" edge="1" parent="iKwgrwwHFy8eXeqNAH09-822" source="iKwgrwwHFy8eXeqNAH09-622">
          <mxGeometry relative="1" as="geometry">
            <mxPoint x="101" y="280" as="sourcePoint" />
            <mxPoint x="281" y="345" as="targetPoint" />
            <Array as="points">
              <mxPoint x="71" y="345" />
            </Array>
          </mxGeometry>
        </mxCell>
        <mxCell id="iKwgrwwHFy8eXeqNAH09-675" style="edgeStyle=orthogonalEdgeStyle;rounded=0;orthogonalLoop=1;jettySize=auto;html=1;entryX=0.75;entryY=1;entryDx=0;entryDy=0;jumpStyle=arc;" edge="1" parent="iKwgrwwHFy8eXeqNAH09-822" source="iKwgrwwHFy8eXeqNAH09-660" target="iKwgrwwHFy8eXeqNAH09-658">
          <mxGeometry relative="1" as="geometry">
            <Array as="points">
              <mxPoint x="11" y="400" />
              <mxPoint x="434" y="400" />
              <mxPoint x="434" y="295" />
            </Array>
          </mxGeometry>
        </mxCell>
        <mxCell id="iKwgrwwHFy8eXeqNAH09-676" style="edgeStyle=orthogonalEdgeStyle;rounded=0;orthogonalLoop=1;jettySize=auto;html=1;entryX=0.25;entryY=1;entryDx=0;entryDy=0;jumpStyle=arc;exitX=1;exitY=0.5;exitDx=0;exitDy=0;" edge="1" parent="iKwgrwwHFy8eXeqNAH09-822" source="iKwgrwwHFy8eXeqNAH09-626" target="iKwgrwwHFy8eXeqNAH09-662">
          <mxGeometry relative="1" as="geometry">
            <Array as="points">
              <mxPoint x="424" y="300" />
              <mxPoint x="424" y="330" />
            </Array>
          </mxGeometry>
        </mxCell>
        <mxCell id="iKwgrwwHFy8eXeqNAH09-677" value="&lt;font style=&quot;font-size: 24px;&quot;&gt;&lt;b&gt;[RV32I43F] &lt;br&gt;43F Architecture&lt;/b&gt;&lt;/font&gt;" style="text;html=1;align=left;verticalAlign=middle;whiteSpace=wrap;rounded=0;" vertex="1" parent="iKwgrwwHFy8eXeqNAH09-822">
          <mxGeometry x="1" width="320" height="60" as="geometry" />
        </mxCell>
        <mxCell id="iKwgrwwHFy8eXeqNAH09-1052" style="edgeStyle=orthogonalEdgeStyle;rounded=0;orthogonalLoop=1;jettySize=auto;html=1;entryX=0;entryY=0.5;entryDx=0;entryDy=0;exitX=1;exitY=0.25;exitDx=0;exitDy=0;jumpStyle=arc;" edge="1" parent="iKwgrwwHFy8eXeqNAH09-822" source="iKwgrwwHFy8eXeqNAH09-1043" target="iKwgrwwHFy8eXeqNAH09-663">
          <mxGeometry relative="1" as="geometry" />
        </mxCell>
        <mxCell id="iKwgrwwHFy8eXeqNAH09-1043" value="&lt;div style=&quot;line-height: 80%;&quot;&gt;&lt;span style=&quot;font-size: 13px;&quot;&gt;&lt;b&gt;CSR&lt;/b&gt;&lt;/span&gt;&lt;/div&gt;&lt;div style=&quot;line-height: 80%;&quot;&gt;&lt;span style=&quot;font-size: 13px;&quot;&gt;&lt;b&gt;File&lt;/b&gt;&lt;/span&gt;&lt;/div&gt;" style="whiteSpace=wrap;html=1;shadow=1;fontSize=18;fillColor=#f5f5f5;strokeColor=#666666;align=center;" vertex="1" parent="iKwgrwwHFy8eXeqNAH09-822">
          <mxGeometry x="353.5" y="330" width="60" height="60" as="geometry" />
        </mxCell>
        <mxCell id="iKwgrwwHFy8eXeqNAH09-1045" style="edgeStyle=orthogonalEdgeStyle;rounded=0;orthogonalLoop=1;jettySize=auto;html=1;jumpStyle=arc;" edge="1" parent="iKwgrwwHFy8eXeqNAH09-822" source="iKwgrwwHFy8eXeqNAH09-1044">
          <mxGeometry relative="1" as="geometry">
            <mxPoint x="353.5" y="340" as="targetPoint" />
            <Array as="points">
              <mxPoint x="324" y="300" />
              <mxPoint x="324" y="340" />
            </Array>
          </mxGeometry>
        </mxCell>
        <mxCell id="iKwgrwwHFy8eXeqNAH09-1044" value="" style="shape=waypoint;sketch=0;size=6;pointerEvents=1;points=[];fillColor=none;resizable=0;rotatable=0;perimeter=centerPerimeter;snapToPoint=1;" vertex="1" parent="iKwgrwwHFy8eXeqNAH09-822">
          <mxGeometry x="281" y="290" width="20" height="20" as="geometry" />
        </mxCell>
        <mxCell id="iKwgrwwHFy8eXeqNAH09-1046" value="" style="shape=waypoint;sketch=0;size=6;pointerEvents=1;points=[];fillColor=none;resizable=0;rotatable=0;perimeter=centerPerimeter;snapToPoint=1;" vertex="1" parent="iKwgrwwHFy8eXeqNAH09-822">
          <mxGeometry x="321" y="410" width="20" height="20" as="geometry" />
        </mxCell>
        <mxCell id="iKwgrwwHFy8eXeqNAH09-1048" value="" style="shape=waypoint;sketch=0;size=6;pointerEvents=1;points=[];fillColor=none;resizable=0;rotatable=0;perimeter=centerPerimeter;snapToPoint=1;" vertex="1" parent="iKwgrwwHFy8eXeqNAH09-822">
          <mxGeometry x="313.5" y="420" width="20" height="20" as="geometry" />
        </mxCell>
        <mxCell id="iKwgrwwHFy8eXeqNAH09-662" value="" style="shape=trapezoid;perimeter=trapezoidPerimeter;whiteSpace=wrap;html=1;fixedSize=1;shadow=1;strokeColor=#666666;align=center;verticalAlign=middle;fontFamily=Helvetica;fontSize=18;fillColor=#f5f5f5;rotation=90;container=0;fontColor=#000000;" vertex="1" parent="iKwgrwwHFy8eXeqNAH09-822">
          <mxGeometry x="461" y="335" width="60" height="20" as="geometry" />
        </mxCell>
        <mxCell id="iKwgrwwHFy8eXeqNAH09-663" value="&lt;div style=&quot;line-height: 90%;&quot;&gt;&lt;b style=&quot;font-size: 10px; background-color: transparent; color: light-dark(rgb(0, 0, 0), rgb(255, 255, 255));&quot;&gt;src&lt;/b&gt;&lt;/div&gt;&lt;div style=&quot;line-height: 90%;&quot;&gt;&lt;span style=&quot;font-size: 10px;&quot;&gt;&lt;b&gt;B&lt;/b&gt;&lt;/span&gt;&lt;/div&gt;" style="text;html=1;align=center;verticalAlign=middle;whiteSpace=wrap;rounded=0;" vertex="1" parent="iKwgrwwHFy8eXeqNAH09-822">
          <mxGeometry x="481" y="330" width="20" height="30" as="geometry" />
        </mxCell>
        <mxCell id="iKwgrwwHFy8eXeqNAH09-658" value="" style="shape=trapezoid;perimeter=trapezoidPerimeter;whiteSpace=wrap;html=1;fixedSize=1;shadow=1;strokeColor=#666666;align=center;verticalAlign=middle;fontFamily=Helvetica;fontSize=18;fillColor=#f5f5f5;rotation=90;container=0;fontColor=#000000;" vertex="1" parent="iKwgrwwHFy8eXeqNAH09-822">
          <mxGeometry x="441" y="270" width="60" height="20" as="geometry" />
        </mxCell>
        <mxCell id="iKwgrwwHFy8eXeqNAH09-659" value="&lt;div style=&quot;line-height: 90%;&quot;&gt;&lt;b style=&quot;font-size: 10px; background-color: transparent; color: light-dark(rgb(0, 0, 0), rgb(255, 255, 255));&quot;&gt;src&lt;/b&gt;&lt;/div&gt;&lt;div style=&quot;line-height: 90%;&quot;&gt;&lt;span style=&quot;font-size: 10px;&quot;&gt;&lt;b&gt;A&lt;/b&gt;&lt;/span&gt;&lt;/div&gt;" style="text;html=1;align=center;verticalAlign=middle;whiteSpace=wrap;rounded=0;" vertex="1" parent="iKwgrwwHFy8eXeqNAH09-822">
          <mxGeometry x="461" y="265" width="20" height="30" as="geometry" />
        </mxCell>
        <mxCell id="iKwgrwwHFy8eXeqNAH09-1051" style="edgeStyle=orthogonalEdgeStyle;rounded=0;orthogonalLoop=1;jettySize=auto;html=1;entryX=0.153;entryY=1.002;entryDx=0;entryDy=0;entryPerimeter=0;" edge="1" parent="iKwgrwwHFy8eXeqNAH09-822" source="iKwgrwwHFy8eXeqNAH09-1050" target="iKwgrwwHFy8eXeqNAH09-658">
          <mxGeometry relative="1" as="geometry">
            <mxPoint x="461.5" y="260" as="targetPoint" />
            <Array as="points">
              <mxPoint x="434" y="255" />
              <mxPoint x="434" y="260" />
              <mxPoint x="461" y="260" />
            </Array>
          </mxGeometry>
        </mxCell>
        <mxCell id="iKwgrwwHFy8eXeqNAH09-1050" value="" style="shape=waypoint;sketch=0;size=6;pointerEvents=1;points=[];fillColor=none;resizable=0;rotatable=0;perimeter=centerPerimeter;snapToPoint=1;" vertex="1" parent="iKwgrwwHFy8eXeqNAH09-822">
          <mxGeometry x="291" y="245" width="20" height="20" as="geometry" />
        </mxCell>
        <mxCell id="iKwgrwwHFy8eXeqNAH09-649" value="&lt;div style=&quot;line-height: 90%;&quot;&gt;&lt;font style=&quot;font-size: 10px;&quot;&gt;&lt;b&gt;Reg&lt;/b&gt;&lt;/font&gt;&lt;div&gt;&lt;font style=&quot;font-size: 10px;&quot;&gt;&lt;b&gt;Src&lt;/b&gt;&lt;/font&gt;&lt;/div&gt;&lt;/div&gt;" style="text;html=1;align=center;verticalAlign=middle;whiteSpace=wrap;rounded=0;" vertex="1" parent="iKwgrwwHFy8eXeqNAH09-822">
          <mxGeometry x="261" y="340" width="60" height="30" as="geometry" />
        </mxCell>
        <mxCell id="iKwgrwwHFy8eXeqNAH09-1134" value="" style="shape=waypoint;sketch=0;size=6;pointerEvents=1;points=[];fillColor=none;resizable=0;rotatable=0;perimeter=centerPerimeter;snapToPoint=1;" vertex="1" parent="iKwgrwwHFy8eXeqNAH09-822">
          <mxGeometry x="413.5" y="335" width="20" height="20" as="geometry" />
        </mxCell>
        <mxCell id="iKwgrwwHFy8eXeqNAH09-823" value="" style="group" vertex="1" connectable="0" parent="1">
          <mxGeometry width="580" height="460" as="geometry" />
        </mxCell>
        <mxCell id="iKwgrwwHFy8eXeqNAH09-824" value="" style="whiteSpace=wrap;html=1;shadow=1;fontSize=18;fillColor=#f5f5f5;strokeColor=#666666;" vertex="1" parent="iKwgrwwHFy8eXeqNAH09-823">
          <mxGeometry width="580" height="460" as="geometry" />
        </mxCell>
        <mxCell id="iKwgrwwHFy8eXeqNAH09-825" style="edgeStyle=orthogonalEdgeStyle;rounded=0;orthogonalLoop=1;jettySize=auto;html=1;entryX=0;entryY=0.5;entryDx=0;entryDy=0;" edge="1" parent="iKwgrwwHFy8eXeqNAH09-823" source="iKwgrwwHFy8eXeqNAH09-827" target="iKwgrwwHFy8eXeqNAH09-829">
          <mxGeometry relative="1" as="geometry" />
        </mxCell>
        <mxCell id="iKwgrwwHFy8eXeqNAH09-826" style="edgeStyle=orthogonalEdgeStyle;rounded=0;orthogonalLoop=1;jettySize=auto;html=1;entryX=0.75;entryY=1;entryDx=0;entryDy=0;exitX=0.5;exitY=0;exitDx=0;exitDy=0;" edge="1" parent="iKwgrwwHFy8eXeqNAH09-823" source="iKwgrwwHFy8eXeqNAH09-827" target="iKwgrwwHFy8eXeqNAH09-837">
          <mxGeometry relative="1" as="geometry">
            <Array as="points">
              <mxPoint x="61" y="200" />
              <mxPoint x="131" y="200" />
            </Array>
          </mxGeometry>
        </mxCell>
        <mxCell id="iKwgrwwHFy8eXeqNAH09-827" value="&lt;div style=&quot;line-height: 80%;&quot;&gt;&lt;font style=&quot;font-size: 13px; line-height: 80%;&quot;&gt;Program&lt;/font&gt;&lt;div&gt;&lt;font style=&quot;font-size: 13px; line-height: 80%;&quot;&gt;Counter&lt;/font&gt;&lt;/div&gt;&lt;/div&gt;" style="whiteSpace=wrap;html=1;shadow=1;fontSize=18;fillColor=#f5f5f5;strokeColor=#666666;fontStyle=1" vertex="1" parent="iKwgrwwHFy8eXeqNAH09-823">
          <mxGeometry x="31" y="210" width="60" height="40" as="geometry" />
        </mxCell>
        <mxCell id="iKwgrwwHFy8eXeqNAH09-828" style="edgeStyle=orthogonalEdgeStyle;rounded=0;orthogonalLoop=1;jettySize=auto;html=1;entryX=0;entryY=0.5;entryDx=0;entryDy=0;" edge="1" parent="iKwgrwwHFy8eXeqNAH09-823" source="iKwgrwwHFy8eXeqNAH09-829" target="iKwgrwwHFy8eXeqNAH09-833">
          <mxGeometry relative="1" as="geometry" />
        </mxCell>
        <mxCell id="iKwgrwwHFy8eXeqNAH09-829" value="&lt;div style=&quot;line-height: 80%;&quot;&gt;&lt;font style=&quot;font-size: 13px; line-height: 80%;&quot;&gt;&lt;b&gt;Instruction&lt;/b&gt;&lt;/font&gt;&lt;div&gt;&lt;font style=&quot;font-size: 13px; line-height: 80%;&quot;&gt;&lt;b&gt;Memory&lt;/b&gt;&lt;/font&gt;&lt;/div&gt;&lt;/div&gt;" style="whiteSpace=wrap;html=1;shadow=1;fontSize=18;fillColor=#f5f5f5;strokeColor=#666666;align=center;" vertex="1" parent="iKwgrwwHFy8eXeqNAH09-823">
          <mxGeometry x="111" y="210" width="70" height="40" as="geometry" />
        </mxCell>
        <mxCell id="iKwgrwwHFy8eXeqNAH09-830" style="edgeStyle=orthogonalEdgeStyle;rounded=0;orthogonalLoop=1;jettySize=auto;html=1;entryX=0.5;entryY=1;entryDx=0;entryDy=0;" edge="1" parent="iKwgrwwHFy8eXeqNAH09-823" source="iKwgrwwHFy8eXeqNAH09-833" target="iKwgrwwHFy8eXeqNAH09-843">
          <mxGeometry relative="1" as="geometry" />
        </mxCell>
        <mxCell id="iKwgrwwHFy8eXeqNAH09-831" style="edgeStyle=orthogonalEdgeStyle;rounded=0;orthogonalLoop=1;jettySize=auto;html=1;entryX=0;entryY=0.25;entryDx=0;entryDy=0;" edge="1" parent="iKwgrwwHFy8eXeqNAH09-823" source="iKwgrwwHFy8eXeqNAH09-855" target="iKwgrwwHFy8eXeqNAH09-844">
          <mxGeometry relative="1" as="geometry">
            <Array as="points">
              <mxPoint x="301" y="300" />
            </Array>
          </mxGeometry>
        </mxCell>
        <mxCell id="iKwgrwwHFy8eXeqNAH09-832" style="edgeStyle=orthogonalEdgeStyle;rounded=0;orthogonalLoop=1;jettySize=auto;html=1;entryX=0.5;entryY=0;entryDx=0;entryDy=0;" edge="1" parent="iKwgrwwHFy8eXeqNAH09-823" source="iKwgrwwHFy8eXeqNAH09-833" target="iKwgrwwHFy8eXeqNAH09-839">
          <mxGeometry relative="1" as="geometry" />
        </mxCell>
        <mxCell id="iKwgrwwHFy8eXeqNAH09-833" value="&lt;div style=&quot;line-height: 80%;&quot;&gt;&lt;font style=&quot;font-size: 13px; line-height: 80%;&quot;&gt;&lt;b&gt;Instruction&lt;/b&gt;&lt;/font&gt;&lt;div&gt;&lt;font style=&quot;font-size: 13px; line-height: 80%;&quot;&gt;&lt;b&gt;Decoder&lt;/b&gt;&lt;/font&gt;&lt;/div&gt;&lt;/div&gt;" style="whiteSpace=wrap;html=1;shadow=1;fontSize=18;fillColor=#f5f5f5;strokeColor=#666666;align=center;" vertex="1" parent="iKwgrwwHFy8eXeqNAH09-823">
          <mxGeometry x="201" y="210" width="80" height="40" as="geometry" />
        </mxCell>
        <mxCell id="iKwgrwwHFy8eXeqNAH09-834" style="edgeStyle=orthogonalEdgeStyle;rounded=0;orthogonalLoop=1;jettySize=auto;html=1;entryX=0;entryY=0.5;entryDx=0;entryDy=0;exitX=0;exitY=0.5;exitDx=0;exitDy=0;" edge="1" parent="iKwgrwwHFy8eXeqNAH09-823" source="iKwgrwwHFy8eXeqNAH09-835" target="iKwgrwwHFy8eXeqNAH09-827">
          <mxGeometry relative="1" as="geometry">
            <mxPoint x="46" y="225" as="targetPoint" />
            <Array as="points">
              <mxPoint x="11" y="170" />
              <mxPoint x="11" y="230" />
            </Array>
          </mxGeometry>
        </mxCell>
        <mxCell id="iKwgrwwHFy8eXeqNAH09-835" value="&lt;div style=&quot;line-height: 80%;&quot;&gt;&lt;font style=&quot;font-size: 13px; line-height: 80%;&quot;&gt;PC&lt;/font&gt;&lt;div&gt;&lt;font style=&quot;font-size: 13px; line-height: 80%;&quot;&gt;Aligner&lt;/font&gt;&lt;/div&gt;&lt;/div&gt;" style="whiteSpace=wrap;html=1;shadow=1;fontSize=18;fillColor=#f5f5f5;strokeColor=#666666;fontStyle=1" vertex="1" parent="iKwgrwwHFy8eXeqNAH09-823">
          <mxGeometry x="31" y="150" width="50" height="40" as="geometry" />
        </mxCell>
        <mxCell id="iKwgrwwHFy8eXeqNAH09-836" style="edgeStyle=orthogonalEdgeStyle;rounded=0;orthogonalLoop=1;jettySize=auto;html=1;entryX=1;entryY=0.5;entryDx=0;entryDy=0;" edge="1" parent="iKwgrwwHFy8eXeqNAH09-823" source="iKwgrwwHFy8eXeqNAH09-837" target="iKwgrwwHFy8eXeqNAH09-835">
          <mxGeometry relative="1" as="geometry" />
        </mxCell>
        <mxCell id="iKwgrwwHFy8eXeqNAH09-837" value="&lt;div style=&quot;line-height: 80%;&quot;&gt;&lt;font style=&quot;font-size: 13px; line-height: 80%;&quot;&gt;PC&lt;/font&gt;&lt;div&gt;&lt;font style=&quot;font-size: 13px; line-height: 80%;&quot;&gt;Controller&lt;/font&gt;&lt;/div&gt;&lt;/div&gt;" style="whiteSpace=wrap;html=1;shadow=1;fontSize=18;fillColor=#f5f5f5;strokeColor=#666666;fontStyle=1" vertex="1" parent="iKwgrwwHFy8eXeqNAH09-823">
          <mxGeometry x="71" y="100" width="80" height="40" as="geometry" />
        </mxCell>
        <mxCell id="iKwgrwwHFy8eXeqNAH09-838" style="edgeStyle=orthogonalEdgeStyle;rounded=0;orthogonalLoop=1;jettySize=auto;html=1;entryX=0.25;entryY=1;entryDx=0;entryDy=0;" edge="1" parent="iKwgrwwHFy8eXeqNAH09-823" source="iKwgrwwHFy8eXeqNAH09-839" target="iKwgrwwHFy8eXeqNAH09-866">
          <mxGeometry relative="1" as="geometry">
            <mxPoint x="281" y="330" as="targetPoint" />
            <Array as="points">
              <mxPoint x="241" y="335" />
            </Array>
          </mxGeometry>
        </mxCell>
        <mxCell id="iKwgrwwHFy8eXeqNAH09-839" value="&lt;div style=&quot;line-height: 80%;&quot;&gt;&lt;span style=&quot;font-size: 13px;&quot;&gt;&lt;b&gt;Immediate&lt;/b&gt;&lt;/span&gt;&lt;/div&gt;&lt;div style=&quot;line-height: 80%;&quot;&gt;&lt;span style=&quot;font-size: 13px;&quot;&gt;&lt;b&gt;Generator&lt;/b&gt;&lt;/span&gt;&lt;/div&gt;" style="whiteSpace=wrap;html=1;shadow=1;fontSize=18;fillColor=#f5f5f5;strokeColor=#666666;align=center;" vertex="1" parent="iKwgrwwHFy8eXeqNAH09-823">
          <mxGeometry x="201" y="270" width="80" height="40" as="geometry" />
        </mxCell>
        <mxCell id="iKwgrwwHFy8eXeqNAH09-840" value="&lt;div style=&quot;line-height: 80%;&quot;&gt;&lt;span style=&quot;font-size: 13px;&quot;&gt;PC+4&lt;/span&gt;&lt;/div&gt;" style="whiteSpace=wrap;html=1;shadow=1;fontSize=18;fillColor=#f5f5f5;strokeColor=#666666;fontStyle=1" vertex="1" parent="iKwgrwwHFy8eXeqNAH09-823">
          <mxGeometry x="51" y="260" width="40" height="20" as="geometry" />
        </mxCell>
        <mxCell id="iKwgrwwHFy8eXeqNAH09-841" style="edgeStyle=orthogonalEdgeStyle;rounded=0;orthogonalLoop=1;jettySize=auto;html=1;entryX=1;entryY=0.5;entryDx=0;entryDy=0;" edge="1" parent="iKwgrwwHFy8eXeqNAH09-823" source="iKwgrwwHFy8eXeqNAH09-843" target="iKwgrwwHFy8eXeqNAH09-837">
          <mxGeometry relative="1" as="geometry">
            <mxPoint x="161" y="120" as="targetPoint" />
          </mxGeometry>
        </mxCell>
        <mxCell id="iKwgrwwHFy8eXeqNAH09-842" style="edgeStyle=orthogonalEdgeStyle;rounded=0;orthogonalLoop=1;jettySize=auto;html=1;entryX=0;entryY=0.5;entryDx=0;entryDy=0;" edge="1" parent="iKwgrwwHFy8eXeqNAH09-823" source="iKwgrwwHFy8eXeqNAH09-843" target="iKwgrwwHFy8eXeqNAH09-850">
          <mxGeometry relative="1" as="geometry">
            <Array as="points">
              <mxPoint x="291" y="100" />
              <mxPoint x="291" y="170" />
            </Array>
          </mxGeometry>
        </mxCell>
        <mxCell id="iKwgrwwHFy8eXeqNAH09-843" value="&lt;div style=&quot;line-height: 80%;&quot;&gt;&lt;span style=&quot;font-size: 13px;&quot;&gt;&lt;b&gt;Control&lt;/b&gt;&lt;/span&gt;&lt;/div&gt;&lt;div style=&quot;line-height: 80%;&quot;&gt;&lt;span style=&quot;font-size: 13px;&quot;&gt;&lt;b&gt;Unit&lt;/b&gt;&lt;/span&gt;&lt;/div&gt;" style="whiteSpace=wrap;html=1;shadow=1;fontSize=18;fillColor=#f5f5f5;strokeColor=#666666;align=center;" vertex="1" parent="iKwgrwwHFy8eXeqNAH09-823">
          <mxGeometry x="211" y="80" width="60" height="80" as="geometry" />
        </mxCell>
        <mxCell id="iKwgrwwHFy8eXeqNAH09-844" value="&lt;div style=&quot;line-height: 80%;&quot;&gt;&lt;span style=&quot;font-size: 13px;&quot;&gt;&lt;b&gt;Register&lt;/b&gt;&lt;/span&gt;&lt;/div&gt;&lt;div style=&quot;line-height: 80%;&quot;&gt;&lt;span style=&quot;font-size: 13px;&quot;&gt;&lt;b&gt;File&lt;/b&gt;&lt;/span&gt;&lt;/div&gt;" style="whiteSpace=wrap;html=1;shadow=1;fontSize=18;fillColor=#f5f5f5;strokeColor=#666666;align=center;" vertex="1" parent="iKwgrwwHFy8eXeqNAH09-823">
          <mxGeometry x="331" y="280" width="60" height="80" as="geometry" />
        </mxCell>
        <mxCell id="iKwgrwwHFy8eXeqNAH09-845" value="&lt;div style=&quot;line-height: 80%;&quot;&gt;&lt;span style=&quot;font-size: 13px;&quot;&gt;&lt;b&gt;ALU&lt;/b&gt;&lt;/span&gt;&lt;/div&gt;&lt;div style=&quot;line-height: 80%;&quot;&gt;&lt;span style=&quot;font-size: 13px;&quot;&gt;&lt;b&gt;Controller&lt;/b&gt;&lt;/span&gt;&lt;/div&gt;" style="whiteSpace=wrap;html=1;shadow=1;fontSize=18;fillColor=#f5f5f5;strokeColor=#666666;align=center;" vertex="1" parent="iKwgrwwHFy8eXeqNAH09-823">
          <mxGeometry x="321" y="210" width="80" height="40" as="geometry" />
        </mxCell>
        <mxCell id="iKwgrwwHFy8eXeqNAH09-846" style="edgeStyle=orthogonalEdgeStyle;rounded=0;orthogonalLoop=1;jettySize=auto;html=1;entryX=0.75;entryY=1;entryDx=0;entryDy=0;exitX=0.5;exitY=1;exitDx=0;exitDy=0;" edge="1" parent="iKwgrwwHFy8eXeqNAH09-823" source="iKwgrwwHFy8eXeqNAH09-847">
          <mxGeometry relative="1" as="geometry">
            <mxPoint x="451" y="290" as="sourcePoint" />
            <mxPoint x="281" y="355" as="targetPoint" />
            <Array as="points">
              <mxPoint x="541" y="420" />
              <mxPoint x="251" y="420" />
              <mxPoint x="251" y="355" />
            </Array>
          </mxGeometry>
        </mxCell>
        <mxCell id="iKwgrwwHFy8eXeqNAH09-847" value="&lt;div style=&quot;line-height: 80%;&quot;&gt;&lt;span style=&quot;font-size: 13px;&quot;&gt;&lt;b&gt;ALU&lt;/b&gt;&lt;/span&gt;&lt;/div&gt;" style="whiteSpace=wrap;html=1;shadow=1;fontSize=18;fillColor=#f5f5f5;strokeColor=#666666;align=center;" vertex="1" parent="iKwgrwwHFy8eXeqNAH09-823">
          <mxGeometry x="511" y="200" width="60" height="100" as="geometry" />
        </mxCell>
        <mxCell id="iKwgrwwHFy8eXeqNAH09-848" style="edgeStyle=orthogonalEdgeStyle;rounded=0;orthogonalLoop=1;jettySize=auto;html=1;entryX=0.5;entryY=0;entryDx=0;entryDy=0;" edge="1" parent="iKwgrwwHFy8eXeqNAH09-823" source="iKwgrwwHFy8eXeqNAH09-849" target="iKwgrwwHFy8eXeqNAH09-850">
          <mxGeometry relative="1" as="geometry" />
        </mxCell>
        <mxCell id="iKwgrwwHFy8eXeqNAH09-849" value="&lt;div style=&quot;line-height: 80%;&quot;&gt;&lt;span style=&quot;font-size: 13px;&quot;&gt;&lt;b&gt;Data&lt;br&gt;Memory&lt;/b&gt;&lt;/span&gt;&lt;/div&gt;" style="whiteSpace=wrap;html=1;shadow=1;fontSize=18;fillColor=#f5f5f5;strokeColor=#666666;align=center;" vertex="1" parent="iKwgrwwHFy8eXeqNAH09-823">
          <mxGeometry x="311" y="80" width="80" height="40" as="geometry" />
        </mxCell>
        <mxCell id="iKwgrwwHFy8eXeqNAH09-850" value="&lt;div style=&quot;line-height: 80%;&quot;&gt;&lt;span style=&quot;font-size: 13px;&quot;&gt;&lt;b&gt;Byte Enable&lt;br&gt;Logic&lt;/b&gt;&lt;/span&gt;&lt;/div&gt;" style="whiteSpace=wrap;html=1;shadow=1;fontSize=18;fillColor=#f5f5f5;strokeColor=#666666;align=center;" vertex="1" parent="iKwgrwwHFy8eXeqNAH09-823">
          <mxGeometry x="311" y="150" width="80" height="40" as="geometry" />
        </mxCell>
        <mxCell id="iKwgrwwHFy8eXeqNAH09-851" style="edgeStyle=orthogonalEdgeStyle;rounded=0;orthogonalLoop=1;jettySize=auto;html=1;entryX=0.75;entryY=0;entryDx=0;entryDy=0;" edge="1" parent="iKwgrwwHFy8eXeqNAH09-823" source="iKwgrwwHFy8eXeqNAH09-852" target="iKwgrwwHFy8eXeqNAH09-837">
          <mxGeometry relative="1" as="geometry">
            <Array as="points">
              <mxPoint x="451" y="70" />
              <mxPoint x="131" y="70" />
            </Array>
          </mxGeometry>
        </mxCell>
        <mxCell id="iKwgrwwHFy8eXeqNAH09-852" value="&lt;div style=&quot;line-height: 80%;&quot;&gt;&lt;span style=&quot;font-size: 13px;&quot;&gt;&lt;b&gt;Branch&lt;/b&gt;&lt;/span&gt;&lt;/div&gt;&lt;div style=&quot;line-height: 80%;&quot;&gt;&lt;span style=&quot;font-size: 13px;&quot;&gt;&lt;b&gt;Logic&lt;/b&gt;&lt;/span&gt;&lt;/div&gt;" style="whiteSpace=wrap;html=1;shadow=1;fontSize=18;fillColor=#f5f5f5;strokeColor=#666666;align=center;" vertex="1" parent="iKwgrwwHFy8eXeqNAH09-823">
          <mxGeometry x="421" y="100" width="60" height="50" as="geometry" />
        </mxCell>
        <mxCell id="iKwgrwwHFy8eXeqNAH09-853" style="edgeStyle=orthogonalEdgeStyle;rounded=0;orthogonalLoop=1;jettySize=auto;html=1;entryX=0;entryY=0.5;entryDx=0;entryDy=0;" edge="1" parent="iKwgrwwHFy8eXeqNAH09-823" source="iKwgrwwHFy8eXeqNAH09-854" target="iKwgrwwHFy8eXeqNAH09-840">
          <mxGeometry relative="1" as="geometry">
            <Array as="points">
              <mxPoint x="11" y="230" />
              <mxPoint x="11" y="270" />
            </Array>
          </mxGeometry>
        </mxCell>
        <mxCell id="iKwgrwwHFy8eXeqNAH09-854" value="" style="shape=waypoint;sketch=0;size=6;pointerEvents=1;points=[];fillColor=none;resizable=0;rotatable=0;perimeter=centerPerimeter;snapToPoint=1;" vertex="1" parent="iKwgrwwHFy8eXeqNAH09-823">
          <mxGeometry x="1" y="220" width="20" height="20" as="geometry" />
        </mxCell>
        <mxCell id="iKwgrwwHFy8eXeqNAH09-855" value="" style="shape=waypoint;sketch=0;size=6;pointerEvents=1;points=[];fillColor=none;resizable=0;rotatable=0;perimeter=centerPerimeter;snapToPoint=1;" vertex="1" parent="iKwgrwwHFy8eXeqNAH09-823">
          <mxGeometry x="291" y="220" width="20" height="20" as="geometry" />
        </mxCell>
        <mxCell id="iKwgrwwHFy8eXeqNAH09-856" style="edgeStyle=orthogonalEdgeStyle;rounded=0;orthogonalLoop=1;jettySize=auto;html=1;entryX=0;entryY=0.5;entryDx=0;entryDy=0;" edge="1" parent="iKwgrwwHFy8eXeqNAH09-823" source="iKwgrwwHFy8eXeqNAH09-857" target="iKwgrwwHFy8eXeqNAH09-849">
          <mxGeometry relative="1" as="geometry">
            <Array as="points">
              <mxPoint x="291" y="100" />
            </Array>
          </mxGeometry>
        </mxCell>
        <mxCell id="iKwgrwwHFy8eXeqNAH09-857" value="" style="shape=waypoint;sketch=0;size=6;pointerEvents=1;points=[];fillColor=none;resizable=0;rotatable=0;perimeter=centerPerimeter;snapToPoint=1;" vertex="1" parent="iKwgrwwHFy8eXeqNAH09-823">
          <mxGeometry x="281" y="90" width="20" height="20" as="geometry" />
        </mxCell>
        <mxCell id="iKwgrwwHFy8eXeqNAH09-858" style="edgeStyle=orthogonalEdgeStyle;rounded=0;orthogonalLoop=1;jettySize=auto;html=1;entryX=0.5;entryY=0;entryDx=0;entryDy=0;" edge="1" parent="iKwgrwwHFy8eXeqNAH09-823" source="iKwgrwwHFy8eXeqNAH09-859" target="iKwgrwwHFy8eXeqNAH09-837">
          <mxGeometry relative="1" as="geometry">
            <mxPoint x="121" y="100" as="targetPoint" />
            <Array as="points">
              <mxPoint x="541" y="60" />
              <mxPoint x="111" y="60" />
            </Array>
          </mxGeometry>
        </mxCell>
        <mxCell id="iKwgrwwHFy8eXeqNAH09-859" value="" style="shape=waypoint;sketch=0;size=6;pointerEvents=1;points=[];fillColor=none;resizable=0;rotatable=0;perimeter=centerPerimeter;snapToPoint=1;" vertex="1" parent="iKwgrwwHFy8eXeqNAH09-823">
          <mxGeometry x="531" y="80" width="20" height="20" as="geometry" />
        </mxCell>
        <mxCell id="iKwgrwwHFy8eXeqNAH09-860" value="" style="shape=waypoint;sketch=0;size=6;pointerEvents=1;points=[];fillColor=none;resizable=0;rotatable=0;perimeter=centerPerimeter;snapToPoint=1;" vertex="1" parent="iKwgrwwHFy8eXeqNAH09-823">
          <mxGeometry x="281" y="125" width="20" height="20" as="geometry" />
        </mxCell>
        <mxCell id="iKwgrwwHFy8eXeqNAH09-861" style="edgeStyle=orthogonalEdgeStyle;rounded=0;orthogonalLoop=1;jettySize=auto;html=1;entryX=0;entryY=0.5;entryDx=0;entryDy=0;jumpStyle=arc;" edge="1" parent="iKwgrwwHFy8eXeqNAH09-823" source="iKwgrwwHFy8eXeqNAH09-860" target="iKwgrwwHFy8eXeqNAH09-852">
          <mxGeometry relative="1" as="geometry" />
        </mxCell>
        <mxCell id="iKwgrwwHFy8eXeqNAH09-862" style="edgeStyle=orthogonalEdgeStyle;rounded=0;orthogonalLoop=1;jettySize=auto;html=1;entryX=1;entryY=0.25;entryDx=0;entryDy=0;" edge="1" parent="iKwgrwwHFy8eXeqNAH09-823" source="iKwgrwwHFy8eXeqNAH09-874" target="iKwgrwwHFy8eXeqNAH09-850">
          <mxGeometry relative="1" as="geometry">
            <Array as="points" />
          </mxGeometry>
        </mxCell>
        <mxCell id="iKwgrwwHFy8eXeqNAH09-863" value="" style="shape=waypoint;sketch=0;size=6;pointerEvents=1;points=[];fillColor=none;resizable=0;rotatable=0;perimeter=centerPerimeter;snapToPoint=1;" vertex="1" parent="iKwgrwwHFy8eXeqNAH09-823">
          <mxGeometry x="531" y="115" width="20" height="20" as="geometry" />
        </mxCell>
        <mxCell id="iKwgrwwHFy8eXeqNAH09-864" style="edgeStyle=orthogonalEdgeStyle;rounded=0;orthogonalLoop=1;jettySize=auto;html=1;entryX=1;entryY=0.5;entryDx=0;entryDy=0;jumpStyle=arc;" edge="1" parent="iKwgrwwHFy8eXeqNAH09-823" source="iKwgrwwHFy8eXeqNAH09-863" target="iKwgrwwHFy8eXeqNAH09-849">
          <mxGeometry relative="1" as="geometry">
            <Array as="points">
              <mxPoint x="541" y="90" />
              <mxPoint x="411" y="90" />
              <mxPoint x="411" y="100" />
            </Array>
          </mxGeometry>
        </mxCell>
        <mxCell id="iKwgrwwHFy8eXeqNAH09-865" value="" style="group" vertex="1" connectable="0" parent="iKwgrwwHFy8eXeqNAH09-823">
          <mxGeometry x="281" y="320" width="50" height="60" as="geometry" />
        </mxCell>
        <mxCell id="iKwgrwwHFy8eXeqNAH09-866" value="" style="shape=trapezoid;perimeter=trapezoidPerimeter;whiteSpace=wrap;html=1;fixedSize=1;shadow=1;strokeColor=#666666;align=center;verticalAlign=middle;fontFamily=Helvetica;fontSize=18;fillColor=#f5f5f5;rotation=90;container=0;fontColor=#000000;" vertex="1" parent="iKwgrwwHFy8eXeqNAH09-865">
          <mxGeometry x="-20" y="20" width="60" height="20" as="geometry" />
        </mxCell>
        <mxCell id="iKwgrwwHFy8eXeqNAH09-867" value="&lt;div style=&quot;line-height: 90%;&quot;&gt;&lt;font style=&quot;font-size: 10px;&quot;&gt;&lt;b&gt;Reg&lt;/b&gt;&lt;/font&gt;&lt;div&gt;&lt;font style=&quot;font-size: 10px;&quot;&gt;&lt;b&gt;Src&lt;/b&gt;&lt;/font&gt;&lt;/div&gt;&lt;/div&gt;" style="text;html=1;align=center;verticalAlign=middle;whiteSpace=wrap;rounded=0;" vertex="1" parent="iKwgrwwHFy8eXeqNAH09-865">
          <mxGeometry x="-20" y="15" width="60" height="30" as="geometry" />
        </mxCell>
        <mxCell id="iKwgrwwHFy8eXeqNAH09-868" style="edgeStyle=orthogonalEdgeStyle;rounded=0;orthogonalLoop=1;jettySize=auto;html=1;entryX=0;entryY=0.5;entryDx=0;entryDy=0;" edge="1" parent="iKwgrwwHFy8eXeqNAH09-823" source="iKwgrwwHFy8eXeqNAH09-869" target="iKwgrwwHFy8eXeqNAH09-866">
          <mxGeometry relative="1" as="geometry" />
        </mxCell>
        <mxCell id="iKwgrwwHFy8eXeqNAH09-869" value="" style="shape=waypoint;sketch=0;size=6;pointerEvents=1;points=[];fillColor=none;resizable=0;rotatable=0;perimeter=centerPerimeter;snapToPoint=1;" vertex="1" parent="iKwgrwwHFy8eXeqNAH09-823">
          <mxGeometry x="281" y="160" width="20" height="20" as="geometry" />
        </mxCell>
        <mxCell id="iKwgrwwHFy8eXeqNAH09-870" style="edgeStyle=orthogonalEdgeStyle;rounded=0;orthogonalLoop=1;jettySize=auto;html=1;entryX=0;entryY=0.5;entryDx=0;entryDy=0;jumpStyle=arc;" edge="1" parent="iKwgrwwHFy8eXeqNAH09-823" source="iKwgrwwHFy8eXeqNAH09-833" target="iKwgrwwHFy8eXeqNAH09-845">
          <mxGeometry relative="1" as="geometry">
            <Array as="points">
              <mxPoint x="311" y="230" />
              <mxPoint x="311" y="230" />
            </Array>
          </mxGeometry>
        </mxCell>
        <mxCell id="iKwgrwwHFy8eXeqNAH09-871" value="" style="endArrow=classic;html=1;rounded=0;exitX=0.5;exitY=0;exitDx=0;exitDy=0;entryX=0;entryY=0.75;entryDx=0;entryDy=0;edgeStyle=orthogonalEdgeStyle;" edge="1" parent="iKwgrwwHFy8eXeqNAH09-823" source="iKwgrwwHFy8eXeqNAH09-866" target="iKwgrwwHFy8eXeqNAH09-844">
          <mxGeometry width="50" height="50" relative="1" as="geometry">
            <mxPoint x="311" y="370" as="sourcePoint" />
            <mxPoint x="361" y="320" as="targetPoint" />
            <Array as="points">
              <mxPoint x="311" y="350" />
              <mxPoint x="311" y="340" />
            </Array>
          </mxGeometry>
        </mxCell>
        <mxCell id="iKwgrwwHFy8eXeqNAH09-872" style="edgeStyle=orthogonalEdgeStyle;rounded=0;orthogonalLoop=1;jettySize=auto;html=1;entryX=1;entryY=0.5;entryDx=0;entryDy=0;jumpStyle=arc;exitX=0.5;exitY=0;exitDx=0;exitDy=0;" edge="1" parent="iKwgrwwHFy8eXeqNAH09-823" source="iKwgrwwHFy8eXeqNAH09-847" target="iKwgrwwHFy8eXeqNAH09-852">
          <mxGeometry relative="1" as="geometry">
            <Array as="points">
              <mxPoint x="541" y="125" />
            </Array>
          </mxGeometry>
        </mxCell>
        <mxCell id="iKwgrwwHFy8eXeqNAH09-873" style="edgeStyle=orthogonalEdgeStyle;rounded=0;orthogonalLoop=1;jettySize=auto;html=1;entryX=0.75;entryY=1;entryDx=0;entryDy=0;exitX=1;exitY=0.5;exitDx=0;exitDy=0;jumpStyle=arc;" edge="1" parent="iKwgrwwHFy8eXeqNAH09-823" source="iKwgrwwHFy8eXeqNAH09-850" target="iKwgrwwHFy8eXeqNAH09-866">
          <mxGeometry relative="1" as="geometry">
            <Array as="points">
              <mxPoint x="421" y="170" />
              <mxPoint x="421" y="410" />
              <mxPoint x="261" y="410" />
              <mxPoint x="261" y="365" />
            </Array>
          </mxGeometry>
        </mxCell>
        <mxCell id="iKwgrwwHFy8eXeqNAH09-874" value="" style="shape=waypoint;sketch=0;size=6;pointerEvents=1;points=[];fillColor=none;resizable=0;rotatable=0;perimeter=centerPerimeter;snapToPoint=1;" vertex="1" parent="iKwgrwwHFy8eXeqNAH09-823">
          <mxGeometry x="531" y="150" width="20" height="20" as="geometry" />
        </mxCell>
        <mxCell id="iKwgrwwHFy8eXeqNAH09-875" value="" style="group" vertex="1" connectable="0" parent="iKwgrwwHFy8eXeqNAH09-823">
          <mxGeometry x="441" y="250" width="50" height="60" as="geometry" />
        </mxCell>
        <mxCell id="iKwgrwwHFy8eXeqNAH09-876" value="" style="shape=trapezoid;perimeter=trapezoidPerimeter;whiteSpace=wrap;html=1;fixedSize=1;shadow=1;strokeColor=#666666;align=center;verticalAlign=middle;fontFamily=Helvetica;fontSize=18;fillColor=#f5f5f5;rotation=90;container=0;fontColor=#000000;" vertex="1" parent="iKwgrwwHFy8eXeqNAH09-875">
          <mxGeometry x="-20" y="20" width="60" height="20" as="geometry" />
        </mxCell>
        <mxCell id="iKwgrwwHFy8eXeqNAH09-877" value="&lt;div style=&quot;line-height: 90%;&quot;&gt;&lt;b style=&quot;font-size: 10px; background-color: transparent; color: light-dark(rgb(0, 0, 0), rgb(255, 255, 255));&quot;&gt;src&lt;/b&gt;&lt;/div&gt;&lt;div style=&quot;line-height: 90%;&quot;&gt;&lt;span style=&quot;font-size: 10px;&quot;&gt;&lt;b&gt;A&lt;/b&gt;&lt;/span&gt;&lt;/div&gt;" style="text;html=1;align=center;verticalAlign=middle;whiteSpace=wrap;rounded=0;" vertex="1" parent="iKwgrwwHFy8eXeqNAH09-875">
          <mxGeometry y="15" width="20" height="30" as="geometry" />
        </mxCell>
        <mxCell id="iKwgrwwHFy8eXeqNAH09-878" value="" style="shape=waypoint;sketch=0;size=6;pointerEvents=1;points=[];fillColor=none;resizable=0;rotatable=0;perimeter=centerPerimeter;snapToPoint=1;" vertex="1" parent="iKwgrwwHFy8eXeqNAH09-823">
          <mxGeometry x="1" y="260" width="20" height="20" as="geometry" />
        </mxCell>
        <mxCell id="iKwgrwwHFy8eXeqNAH09-879" value="" style="group" vertex="1" connectable="0" parent="iKwgrwwHFy8eXeqNAH09-823">
          <mxGeometry x="461" y="320" width="50" height="60" as="geometry" />
        </mxCell>
        <mxCell id="iKwgrwwHFy8eXeqNAH09-880" value="" style="shape=trapezoid;perimeter=trapezoidPerimeter;whiteSpace=wrap;html=1;fixedSize=1;shadow=1;strokeColor=#666666;align=center;verticalAlign=middle;fontFamily=Helvetica;fontSize=18;fillColor=#f5f5f5;rotation=90;container=0;fontColor=#000000;" vertex="1" parent="iKwgrwwHFy8eXeqNAH09-879">
          <mxGeometry x="-20" y="20" width="60" height="20" as="geometry" />
        </mxCell>
        <mxCell id="iKwgrwwHFy8eXeqNAH09-881" value="&lt;div style=&quot;line-height: 90%;&quot;&gt;&lt;b style=&quot;font-size: 10px; background-color: transparent; color: light-dark(rgb(0, 0, 0), rgb(255, 255, 255));&quot;&gt;src&lt;/b&gt;&lt;/div&gt;&lt;div style=&quot;line-height: 90%;&quot;&gt;&lt;span style=&quot;font-size: 10px;&quot;&gt;&lt;b&gt;B&lt;/b&gt;&lt;/span&gt;&lt;/div&gt;" style="text;html=1;align=center;verticalAlign=middle;whiteSpace=wrap;rounded=0;" vertex="1" parent="iKwgrwwHFy8eXeqNAH09-879">
          <mxGeometry y="15" width="20" height="30" as="geometry" />
        </mxCell>
        <mxCell id="iKwgrwwHFy8eXeqNAH09-882" style="edgeStyle=orthogonalEdgeStyle;rounded=0;orthogonalLoop=1;jettySize=auto;html=1;entryX=0;entryY=0.5;entryDx=0;entryDy=0;jumpStyle=arc;" edge="1" parent="iKwgrwwHFy8eXeqNAH09-823" source="iKwgrwwHFy8eXeqNAH09-883" target="iKwgrwwHFy8eXeqNAH09-876">
          <mxGeometry relative="1" as="geometry" />
        </mxCell>
        <mxCell id="iKwgrwwHFy8eXeqNAH09-883" value="" style="shape=waypoint;sketch=0;size=6;pointerEvents=1;points=[];fillColor=none;resizable=0;rotatable=0;perimeter=centerPerimeter;snapToPoint=1;" vertex="1" parent="iKwgrwwHFy8eXeqNAH09-823">
          <mxGeometry x="281" y="190" width="20" height="20" as="geometry" />
        </mxCell>
        <mxCell id="iKwgrwwHFy8eXeqNAH09-884" style="edgeStyle=orthogonalEdgeStyle;rounded=0;orthogonalLoop=1;jettySize=auto;html=1;entryX=0;entryY=0.5;entryDx=0;entryDy=0;" edge="1" parent="iKwgrwwHFy8eXeqNAH09-823" source="iKwgrwwHFy8eXeqNAH09-885" target="iKwgrwwHFy8eXeqNAH09-880">
          <mxGeometry relative="1" as="geometry">
            <Array as="points">
              <mxPoint x="471" y="200" />
            </Array>
          </mxGeometry>
        </mxCell>
        <mxCell id="iKwgrwwHFy8eXeqNAH09-885" value="" style="shape=waypoint;sketch=0;size=6;pointerEvents=1;points=[];fillColor=none;resizable=0;rotatable=0;perimeter=centerPerimeter;snapToPoint=1;" vertex="1" parent="iKwgrwwHFy8eXeqNAH09-823">
          <mxGeometry x="441" y="190" width="20" height="20" as="geometry" />
        </mxCell>
        <mxCell id="iKwgrwwHFy8eXeqNAH09-886" style="edgeStyle=orthogonalEdgeStyle;rounded=0;orthogonalLoop=1;jettySize=auto;html=1;entryX=0;entryY=0.8;entryDx=0;entryDy=0;entryPerimeter=0;jumpStyle=arc;" edge="1" parent="iKwgrwwHFy8eXeqNAH09-823" source="iKwgrwwHFy8eXeqNAH09-876" target="iKwgrwwHFy8eXeqNAH09-847">
          <mxGeometry relative="1" as="geometry">
            <mxPoint x="491" y="280" as="targetPoint" />
          </mxGeometry>
        </mxCell>
        <mxCell id="iKwgrwwHFy8eXeqNAH09-887" value="" style="endArrow=classic;html=1;rounded=0;entryX=0;entryY=0.25;entryDx=0;entryDy=0;jumpStyle=arc;" edge="1" parent="iKwgrwwHFy8eXeqNAH09-823" target="iKwgrwwHFy8eXeqNAH09-847">
          <mxGeometry width="50" height="50" relative="1" as="geometry">
            <mxPoint x="401" y="225" as="sourcePoint" />
            <mxPoint x="421" y="225" as="targetPoint" />
          </mxGeometry>
        </mxCell>
        <mxCell id="iKwgrwwHFy8eXeqNAH09-888" style="edgeStyle=orthogonalEdgeStyle;rounded=0;orthogonalLoop=1;jettySize=auto;html=1;entryX=0.25;entryY=1;entryDx=0;entryDy=0;jumpStyle=arc;exitX=0.5;exitY=0;exitDx=0;exitDy=0;" edge="1" parent="iKwgrwwHFy8eXeqNAH09-823" source="iKwgrwwHFy8eXeqNAH09-844" target="iKwgrwwHFy8eXeqNAH09-876">
          <mxGeometry relative="1" as="geometry">
            <Array as="points">
              <mxPoint x="361" y="265" />
            </Array>
          </mxGeometry>
        </mxCell>
        <mxCell id="iKwgrwwHFy8eXeqNAH09-889" style="edgeStyle=orthogonalEdgeStyle;rounded=0;orthogonalLoop=1;jettySize=auto;html=1;entryX=0.75;entryY=1;entryDx=0;entryDy=0;" edge="1" parent="iKwgrwwHFy8eXeqNAH09-823" source="iKwgrwwHFy8eXeqNAH09-890" target="iKwgrwwHFy8eXeqNAH09-880">
          <mxGeometry relative="1" as="geometry">
            <Array as="points">
              <mxPoint x="241" y="430" />
              <mxPoint x="431" y="430" />
              <mxPoint x="431" y="365" />
            </Array>
          </mxGeometry>
        </mxCell>
        <mxCell id="iKwgrwwHFy8eXeqNAH09-890" value="" style="shape=waypoint;sketch=0;size=6;pointerEvents=1;points=[];fillColor=none;resizable=0;rotatable=0;perimeter=centerPerimeter;snapToPoint=1;" vertex="1" parent="iKwgrwwHFy8eXeqNAH09-823">
          <mxGeometry x="231" y="325" width="20" height="20" as="geometry" />
        </mxCell>
        <mxCell id="iKwgrwwHFy8eXeqNAH09-891" style="edgeStyle=orthogonalEdgeStyle;rounded=0;orthogonalLoop=1;jettySize=auto;html=1;entryX=0.25;entryY=1;entryDx=0;entryDy=0;" edge="1" parent="iKwgrwwHFy8eXeqNAH09-823" source="iKwgrwwHFy8eXeqNAH09-881" target="iKwgrwwHFy8eXeqNAH09-847">
          <mxGeometry relative="1" as="geometry" />
        </mxCell>
        <mxCell id="iKwgrwwHFy8eXeqNAH09-892" style="edgeStyle=orthogonalEdgeStyle;rounded=0;orthogonalLoop=1;jettySize=auto;html=1;entryX=0.25;entryY=1;entryDx=0;entryDy=0;exitX=0.5;exitY=1;exitDx=0;exitDy=0;jumpStyle=arc;" edge="1" parent="iKwgrwwHFy8eXeqNAH09-823" source="iKwgrwwHFy8eXeqNAH09-840">
          <mxGeometry relative="1" as="geometry">
            <mxPoint x="101" y="280" as="sourcePoint" />
            <mxPoint x="281" y="345" as="targetPoint" />
            <Array as="points">
              <mxPoint x="71" y="345" />
            </Array>
          </mxGeometry>
        </mxCell>
        <mxCell id="iKwgrwwHFy8eXeqNAH09-893" style="edgeStyle=orthogonalEdgeStyle;rounded=0;orthogonalLoop=1;jettySize=auto;html=1;entryX=0.75;entryY=1;entryDx=0;entryDy=0;jumpStyle=arc;" edge="1" parent="iKwgrwwHFy8eXeqNAH09-823" source="iKwgrwwHFy8eXeqNAH09-878" target="iKwgrwwHFy8eXeqNAH09-876">
          <mxGeometry relative="1" as="geometry">
            <Array as="points">
              <mxPoint x="11" y="390" />
              <mxPoint x="411" y="390" />
              <mxPoint x="411" y="295" />
            </Array>
          </mxGeometry>
        </mxCell>
        <mxCell id="iKwgrwwHFy8eXeqNAH09-894" style="edgeStyle=orthogonalEdgeStyle;rounded=0;orthogonalLoop=1;jettySize=auto;html=1;entryX=0.25;entryY=1;entryDx=0;entryDy=0;jumpStyle=arc;" edge="1" parent="iKwgrwwHFy8eXeqNAH09-823" source="iKwgrwwHFy8eXeqNAH09-844" target="iKwgrwwHFy8eXeqNAH09-880">
          <mxGeometry relative="1" as="geometry">
            <Array as="points">
              <mxPoint x="401" y="320" />
              <mxPoint x="401" y="335" />
            </Array>
          </mxGeometry>
        </mxCell>
        <mxCell id="iKwgrwwHFy8eXeqNAH09-895" value="&lt;font style=&quot;font-size: 24px;&quot;&gt;&lt;b&gt;[RV32I37F] &lt;br&gt;37F Architecture&lt;/b&gt;&lt;/font&gt;" style="text;html=1;align=left;verticalAlign=middle;whiteSpace=wrap;rounded=0;" vertex="1" parent="iKwgrwwHFy8eXeqNAH09-823">
          <mxGeometry x="1" width="320" height="60" as="geometry" />
        </mxCell>
        <mxCell id="iKwgrwwHFy8eXeqNAH09-1136" value="" style="group" vertex="1" connectable="0" parent="1">
          <mxGeometry x="1173.5" width="580" height="460" as="geometry" />
        </mxCell>
        <mxCell id="iKwgrwwHFy8eXeqNAH09-1137" value="" style="whiteSpace=wrap;html=1;shadow=1;fontSize=18;fillColor=#f5f5f5;strokeColor=#666666;" vertex="1" parent="iKwgrwwHFy8eXeqNAH09-1136">
          <mxGeometry width="580" height="460" as="geometry" />
        </mxCell>
        <mxCell id="iKwgrwwHFy8eXeqNAH09-1138" style="edgeStyle=orthogonalEdgeStyle;rounded=0;orthogonalLoop=1;jettySize=auto;html=1;entryX=0.5;entryY=1;entryDx=0;entryDy=0;jumpStyle=arc;" edge="1" parent="iKwgrwwHFy8eXeqNAH09-1136" source="iKwgrwwHFy8eXeqNAH09-1217" target="iKwgrwwHFy8eXeqNAH09-1139">
          <mxGeometry relative="1" as="geometry">
            <mxPoint x="421.5" y="345" as="sourcePoint" />
            <mxPoint x="279" y="355" as="targetPoint" />
            <Array as="points">
              <mxPoint x="424" y="440" />
              <mxPoint x="232" y="440" />
              <mxPoint x="232" y="355" />
            </Array>
          </mxGeometry>
        </mxCell>
        <mxCell id="iKwgrwwHFy8eXeqNAH09-1139" value="" style="shape=trapezoid;perimeter=trapezoidPerimeter;whiteSpace=wrap;html=1;fixedSize=1;shadow=1;strokeColor=#666666;align=center;verticalAlign=middle;fontFamily=Helvetica;fontSize=18;fillColor=#f5f5f5;rotation=90;container=0;fontColor=#000000;" vertex="1" parent="iKwgrwwHFy8eXeqNAH09-1136">
          <mxGeometry x="251" y="345" width="80" height="20" as="geometry" />
        </mxCell>
        <mxCell id="iKwgrwwHFy8eXeqNAH09-1140" style="edgeStyle=orthogonalEdgeStyle;rounded=0;orthogonalLoop=1;jettySize=auto;html=1;entryX=0.75;entryY=1;entryDx=0;entryDy=0;jumpStyle=arc;" edge="1" parent="iKwgrwwHFy8eXeqNAH09-1136" source="iKwgrwwHFy8eXeqNAH09-1198" target="iKwgrwwHFy8eXeqNAH09-1210">
          <mxGeometry relative="1" as="geometry">
            <Array as="points">
              <mxPoint x="241" y="430" />
              <mxPoint x="464" y="430" />
              <mxPoint x="464" y="360" />
            </Array>
          </mxGeometry>
        </mxCell>
        <mxCell id="iKwgrwwHFy8eXeqNAH09-1141" style="edgeStyle=orthogonalEdgeStyle;rounded=0;orthogonalLoop=1;jettySize=auto;html=1;entryX=0;entryY=0.5;entryDx=0;entryDy=0;" edge="1" parent="iKwgrwwHFy8eXeqNAH09-1136" source="iKwgrwwHFy8eXeqNAH09-1209" target="iKwgrwwHFy8eXeqNAH09-1205">
          <mxGeometry relative="1" as="geometry">
            <Array as="points">
              <mxPoint x="324" y="430" />
              <mxPoint x="324" y="360" />
            </Array>
          </mxGeometry>
        </mxCell>
        <mxCell id="iKwgrwwHFy8eXeqNAH09-1142" style="edgeStyle=orthogonalEdgeStyle;rounded=0;orthogonalLoop=1;jettySize=auto;html=1;entryX=0;entryY=0.75;entryDx=0;entryDy=0;" edge="1" parent="iKwgrwwHFy8eXeqNAH09-1136" source="iKwgrwwHFy8eXeqNAH09-1208" target="iKwgrwwHFy8eXeqNAH09-1205">
          <mxGeometry relative="1" as="geometry">
            <Array as="points">
              <mxPoint x="331" y="375" />
            </Array>
          </mxGeometry>
        </mxCell>
        <mxCell id="iKwgrwwHFy8eXeqNAH09-1143" style="edgeStyle=orthogonalEdgeStyle;rounded=0;orthogonalLoop=1;jettySize=auto;html=1;entryX=0;entryY=0.5;entryDx=0;entryDy=0;" edge="1" parent="iKwgrwwHFy8eXeqNAH09-1136" source="iKwgrwwHFy8eXeqNAH09-1145" target="iKwgrwwHFy8eXeqNAH09-1147">
          <mxGeometry relative="1" as="geometry" />
        </mxCell>
        <mxCell id="iKwgrwwHFy8eXeqNAH09-1144" style="edgeStyle=orthogonalEdgeStyle;rounded=0;orthogonalLoop=1;jettySize=auto;html=1;entryX=0.75;entryY=1;entryDx=0;entryDy=0;exitX=0.5;exitY=0;exitDx=0;exitDy=0;" edge="1" parent="iKwgrwwHFy8eXeqNAH09-1136" source="iKwgrwwHFy8eXeqNAH09-1145" target="iKwgrwwHFy8eXeqNAH09-1155">
          <mxGeometry relative="1" as="geometry">
            <Array as="points">
              <mxPoint x="61" y="200" />
              <mxPoint x="131" y="200" />
            </Array>
          </mxGeometry>
        </mxCell>
        <mxCell id="iKwgrwwHFy8eXeqNAH09-1145" value="&lt;div style=&quot;line-height: 80%;&quot;&gt;&lt;font style=&quot;font-size: 13px; line-height: 80%;&quot;&gt;Program&lt;/font&gt;&lt;div&gt;&lt;font style=&quot;font-size: 13px; line-height: 80%;&quot;&gt;Counter&lt;/font&gt;&lt;/div&gt;&lt;/div&gt;" style="whiteSpace=wrap;html=1;shadow=1;fontSize=18;fillColor=#f5f5f5;strokeColor=#666666;fontStyle=1" vertex="1" parent="iKwgrwwHFy8eXeqNAH09-1136">
          <mxGeometry x="31" y="210" width="60" height="40" as="geometry" />
        </mxCell>
        <mxCell id="iKwgrwwHFy8eXeqNAH09-1146" style="edgeStyle=orthogonalEdgeStyle;rounded=0;orthogonalLoop=1;jettySize=auto;html=1;entryX=0;entryY=0.5;entryDx=0;entryDy=0;" edge="1" parent="iKwgrwwHFy8eXeqNAH09-1136" source="iKwgrwwHFy8eXeqNAH09-1147" target="iKwgrwwHFy8eXeqNAH09-1151">
          <mxGeometry relative="1" as="geometry" />
        </mxCell>
        <mxCell id="iKwgrwwHFy8eXeqNAH09-1147" value="&lt;div style=&quot;line-height: 80%;&quot;&gt;&lt;font style=&quot;font-size: 13px; line-height: 80%;&quot;&gt;&lt;b&gt;Instruction&lt;/b&gt;&lt;/font&gt;&lt;div&gt;&lt;font style=&quot;font-size: 13px; line-height: 80%;&quot;&gt;&lt;b&gt;Memory&lt;/b&gt;&lt;/font&gt;&lt;/div&gt;&lt;/div&gt;" style="whiteSpace=wrap;html=1;shadow=1;fontSize=18;fillColor=#f5f5f5;strokeColor=#666666;align=center;" vertex="1" parent="iKwgrwwHFy8eXeqNAH09-1136">
          <mxGeometry x="111" y="210" width="70" height="40" as="geometry" />
        </mxCell>
        <mxCell id="iKwgrwwHFy8eXeqNAH09-1148" style="edgeStyle=orthogonalEdgeStyle;rounded=0;orthogonalLoop=1;jettySize=auto;html=1;entryX=0.5;entryY=1;entryDx=0;entryDy=0;" edge="1" parent="iKwgrwwHFy8eXeqNAH09-1136" source="iKwgrwwHFy8eXeqNAH09-1151" target="iKwgrwwHFy8eXeqNAH09-1161">
          <mxGeometry relative="1" as="geometry" />
        </mxCell>
        <mxCell id="iKwgrwwHFy8eXeqNAH09-1149" style="edgeStyle=orthogonalEdgeStyle;rounded=0;orthogonalLoop=1;jettySize=auto;html=1;entryX=0;entryY=0.25;entryDx=0;entryDy=0;" edge="1" parent="iKwgrwwHFy8eXeqNAH09-1136" source="iKwgrwwHFy8eXeqNAH09-1173" target="iKwgrwwHFy8eXeqNAH09-1162">
          <mxGeometry relative="1" as="geometry">
            <Array as="points">
              <mxPoint x="301" y="290" />
            </Array>
          </mxGeometry>
        </mxCell>
        <mxCell id="iKwgrwwHFy8eXeqNAH09-1150" style="edgeStyle=orthogonalEdgeStyle;rounded=0;orthogonalLoop=1;jettySize=auto;html=1;entryX=0.5;entryY=0;entryDx=0;entryDy=0;" edge="1" parent="iKwgrwwHFy8eXeqNAH09-1136" source="iKwgrwwHFy8eXeqNAH09-1151" target="iKwgrwwHFy8eXeqNAH09-1157">
          <mxGeometry relative="1" as="geometry" />
        </mxCell>
        <mxCell id="iKwgrwwHFy8eXeqNAH09-1151" value="&lt;div style=&quot;line-height: 80%;&quot;&gt;&lt;font style=&quot;font-size: 13px; line-height: 80%;&quot;&gt;&lt;b&gt;Instruction&lt;/b&gt;&lt;/font&gt;&lt;div&gt;&lt;font style=&quot;font-size: 13px; line-height: 80%;&quot;&gt;&lt;b&gt;Decoder&lt;/b&gt;&lt;/font&gt;&lt;/div&gt;&lt;/div&gt;" style="whiteSpace=wrap;html=1;shadow=1;fontSize=18;fillColor=#f5f5f5;strokeColor=#666666;align=center;" vertex="1" parent="iKwgrwwHFy8eXeqNAH09-1136">
          <mxGeometry x="201" y="210" width="80" height="40" as="geometry" />
        </mxCell>
        <mxCell id="iKwgrwwHFy8eXeqNAH09-1152" style="edgeStyle=orthogonalEdgeStyle;rounded=0;orthogonalLoop=1;jettySize=auto;html=1;entryX=0;entryY=0.5;entryDx=0;entryDy=0;exitX=0;exitY=0.5;exitDx=0;exitDy=0;" edge="1" parent="iKwgrwwHFy8eXeqNAH09-1136" source="iKwgrwwHFy8eXeqNAH09-1153" target="iKwgrwwHFy8eXeqNAH09-1145">
          <mxGeometry relative="1" as="geometry">
            <mxPoint x="46" y="225" as="targetPoint" />
            <Array as="points">
              <mxPoint x="11" y="170" />
              <mxPoint x="11" y="230" />
            </Array>
          </mxGeometry>
        </mxCell>
        <mxCell id="iKwgrwwHFy8eXeqNAH09-1153" value="&lt;div style=&quot;line-height: 80%;&quot;&gt;&lt;font style=&quot;font-size: 13px; line-height: 80%;&quot;&gt;PC&lt;/font&gt;&lt;div&gt;&lt;font style=&quot;font-size: 13px; line-height: 80%;&quot;&gt;Aligner&lt;/font&gt;&lt;/div&gt;&lt;/div&gt;" style="whiteSpace=wrap;html=1;shadow=1;fontSize=18;fillColor=#f5f5f5;strokeColor=#666666;fontStyle=1" vertex="1" parent="iKwgrwwHFy8eXeqNAH09-1136">
          <mxGeometry x="31" y="150" width="50" height="40" as="geometry" />
        </mxCell>
        <mxCell id="iKwgrwwHFy8eXeqNAH09-1154" style="edgeStyle=orthogonalEdgeStyle;rounded=0;orthogonalLoop=1;jettySize=auto;html=1;entryX=1;entryY=0.5;entryDx=0;entryDy=0;" edge="1" parent="iKwgrwwHFy8eXeqNAH09-1136" source="iKwgrwwHFy8eXeqNAH09-1155" target="iKwgrwwHFy8eXeqNAH09-1153">
          <mxGeometry relative="1" as="geometry" />
        </mxCell>
        <mxCell id="iKwgrwwHFy8eXeqNAH09-1155" value="&lt;div style=&quot;line-height: 80%;&quot;&gt;&lt;font style=&quot;font-size: 13px; line-height: 80%;&quot;&gt;PC&lt;/font&gt;&lt;div&gt;&lt;font style=&quot;font-size: 13px; line-height: 80%;&quot;&gt;Controller&lt;/font&gt;&lt;/div&gt;&lt;/div&gt;" style="whiteSpace=wrap;html=1;shadow=1;fontSize=18;fillColor=#f5f5f5;strokeColor=#666666;fontStyle=1" vertex="1" parent="iKwgrwwHFy8eXeqNAH09-1136">
          <mxGeometry x="71" y="100" width="80" height="40" as="geometry" />
        </mxCell>
        <mxCell id="iKwgrwwHFy8eXeqNAH09-1156" style="edgeStyle=orthogonalEdgeStyle;rounded=0;orthogonalLoop=1;jettySize=auto;html=1;entryX=0.25;entryY=1;entryDx=0;entryDy=0;" edge="1" parent="iKwgrwwHFy8eXeqNAH09-1136" source="iKwgrwwHFy8eXeqNAH09-1157" target="iKwgrwwHFy8eXeqNAH09-1139">
          <mxGeometry relative="1" as="geometry">
            <mxPoint x="281" y="330" as="targetPoint" />
            <Array as="points">
              <mxPoint x="241" y="335" />
            </Array>
          </mxGeometry>
        </mxCell>
        <mxCell id="iKwgrwwHFy8eXeqNAH09-1157" value="&lt;div style=&quot;line-height: 80%;&quot;&gt;&lt;span style=&quot;font-size: 13px;&quot;&gt;&lt;b&gt;Immediate&lt;/b&gt;&lt;/span&gt;&lt;/div&gt;&lt;div style=&quot;line-height: 80%;&quot;&gt;&lt;span style=&quot;font-size: 13px;&quot;&gt;&lt;b&gt;Generator&lt;/b&gt;&lt;/span&gt;&lt;/div&gt;" style="whiteSpace=wrap;html=1;shadow=1;fontSize=18;fillColor=#f5f5f5;strokeColor=#666666;align=center;" vertex="1" parent="iKwgrwwHFy8eXeqNAH09-1136">
          <mxGeometry x="201" y="270" width="80" height="40" as="geometry" />
        </mxCell>
        <mxCell id="iKwgrwwHFy8eXeqNAH09-1158" value="&lt;div style=&quot;line-height: 80%;&quot;&gt;&lt;span style=&quot;font-size: 13px;&quot;&gt;PC+4&lt;/span&gt;&lt;/div&gt;" style="whiteSpace=wrap;html=1;shadow=1;fontSize=18;fillColor=#f5f5f5;strokeColor=#666666;fontStyle=1" vertex="1" parent="iKwgrwwHFy8eXeqNAH09-1136">
          <mxGeometry x="51" y="260" width="40" height="20" as="geometry" />
        </mxCell>
        <mxCell id="iKwgrwwHFy8eXeqNAH09-1159" style="edgeStyle=orthogonalEdgeStyle;rounded=0;orthogonalLoop=1;jettySize=auto;html=1;entryX=1;entryY=0.5;entryDx=0;entryDy=0;" edge="1" parent="iKwgrwwHFy8eXeqNAH09-1136" source="iKwgrwwHFy8eXeqNAH09-1161" target="iKwgrwwHFy8eXeqNAH09-1155">
          <mxGeometry relative="1" as="geometry">
            <mxPoint x="161" y="120" as="targetPoint" />
          </mxGeometry>
        </mxCell>
        <mxCell id="iKwgrwwHFy8eXeqNAH09-1160" style="edgeStyle=orthogonalEdgeStyle;rounded=0;orthogonalLoop=1;jettySize=auto;html=1;entryX=0;entryY=0.5;entryDx=0;entryDy=0;" edge="1" parent="iKwgrwwHFy8eXeqNAH09-1136" source="iKwgrwwHFy8eXeqNAH09-1161" target="iKwgrwwHFy8eXeqNAH09-1168">
          <mxGeometry relative="1" as="geometry">
            <Array as="points">
              <mxPoint x="291" y="100" />
              <mxPoint x="291" y="170" />
            </Array>
          </mxGeometry>
        </mxCell>
        <mxCell id="iKwgrwwHFy8eXeqNAH09-1161" value="&lt;div style=&quot;line-height: 80%;&quot;&gt;&lt;span style=&quot;font-size: 13px;&quot;&gt;&lt;b&gt;Control&lt;/b&gt;&lt;/span&gt;&lt;/div&gt;&lt;div style=&quot;line-height: 80%;&quot;&gt;&lt;span style=&quot;font-size: 13px;&quot;&gt;&lt;b&gt;Unit&lt;/b&gt;&lt;/span&gt;&lt;/div&gt;" style="whiteSpace=wrap;html=1;shadow=1;fontSize=18;fillColor=#f5f5f5;strokeColor=#666666;align=center;" vertex="1" parent="iKwgrwwHFy8eXeqNAH09-1136">
          <mxGeometry x="211" y="80" width="60" height="80" as="geometry" />
        </mxCell>
        <mxCell id="iKwgrwwHFy8eXeqNAH09-1162" value="&lt;div style=&quot;line-height: 80%;&quot;&gt;&lt;span style=&quot;font-size: 13px;&quot;&gt;&lt;b&gt;Register&lt;/b&gt;&lt;/span&gt;&lt;/div&gt;&lt;div style=&quot;line-height: 80%;&quot;&gt;&lt;span style=&quot;font-size: 13px;&quot;&gt;&lt;b&gt;File&lt;/b&gt;&lt;/span&gt;&lt;/div&gt;" style="whiteSpace=wrap;html=1;shadow=1;fontSize=18;fillColor=#f5f5f5;strokeColor=#666666;align=center;" vertex="1" parent="iKwgrwwHFy8eXeqNAH09-1136">
          <mxGeometry x="353.5" y="280" width="60" height="40" as="geometry" />
        </mxCell>
        <mxCell id="iKwgrwwHFy8eXeqNAH09-1163" value="&lt;div style=&quot;line-height: 80%;&quot;&gt;&lt;span style=&quot;font-size: 13px;&quot;&gt;&lt;b&gt;ALU&lt;/b&gt;&lt;/span&gt;&lt;/div&gt;&lt;div style=&quot;line-height: 80%;&quot;&gt;&lt;span style=&quot;font-size: 13px;&quot;&gt;&lt;b&gt;Controller&lt;/b&gt;&lt;/span&gt;&lt;/div&gt;" style="whiteSpace=wrap;html=1;shadow=1;fontSize=18;fillColor=#f5f5f5;strokeColor=#666666;align=center;" vertex="1" parent="iKwgrwwHFy8eXeqNAH09-1136">
          <mxGeometry x="321" y="210" width="80" height="40" as="geometry" />
        </mxCell>
        <mxCell id="iKwgrwwHFy8eXeqNAH09-1164" style="edgeStyle=orthogonalEdgeStyle;rounded=0;orthogonalLoop=1;jettySize=auto;html=1;entryX=0.75;entryY=1;entryDx=0;entryDy=0;exitX=0.5;exitY=1;exitDx=0;exitDy=0;jumpStyle=arc;" edge="1" parent="iKwgrwwHFy8eXeqNAH09-1136" source="iKwgrwwHFy8eXeqNAH09-1165">
          <mxGeometry relative="1" as="geometry">
            <mxPoint x="541" y="290" as="sourcePoint" />
            <mxPoint x="281" y="365" as="targetPoint" />
            <Array as="points">
              <mxPoint x="541" y="420" />
              <mxPoint x="251" y="420" />
              <mxPoint x="251" y="365" />
            </Array>
          </mxGeometry>
        </mxCell>
        <mxCell id="iKwgrwwHFy8eXeqNAH09-1165" value="&lt;div style=&quot;line-height: 80%;&quot;&gt;&lt;span style=&quot;font-size: 13px;&quot;&gt;&lt;b&gt;ALU&lt;/b&gt;&lt;/span&gt;&lt;/div&gt;" style="whiteSpace=wrap;html=1;shadow=1;fontSize=18;fillColor=#f5f5f5;strokeColor=#666666;align=center;" vertex="1" parent="iKwgrwwHFy8eXeqNAH09-1136">
          <mxGeometry x="511" y="200" width="60" height="100" as="geometry" />
        </mxCell>
        <mxCell id="iKwgrwwHFy8eXeqNAH09-1166" style="edgeStyle=orthogonalEdgeStyle;rounded=0;orthogonalLoop=1;jettySize=auto;html=1;entryX=0.5;entryY=0;entryDx=0;entryDy=0;" edge="1" parent="iKwgrwwHFy8eXeqNAH09-1136" source="iKwgrwwHFy8eXeqNAH09-1167" target="iKwgrwwHFy8eXeqNAH09-1168">
          <mxGeometry relative="1" as="geometry" />
        </mxCell>
        <mxCell id="iKwgrwwHFy8eXeqNAH09-1167" value="&lt;div style=&quot;line-height: 80%;&quot;&gt;&lt;span style=&quot;font-size: 13px;&quot;&gt;&lt;b&gt;Data&lt;br&gt;Memory&lt;/b&gt;&lt;/span&gt;&lt;/div&gt;" style="whiteSpace=wrap;html=1;shadow=1;fontSize=18;fillColor=#f5f5f5;strokeColor=#666666;align=center;" vertex="1" parent="iKwgrwwHFy8eXeqNAH09-1136">
          <mxGeometry x="311" y="80" width="80" height="40" as="geometry" />
        </mxCell>
        <mxCell id="iKwgrwwHFy8eXeqNAH09-1168" value="&lt;div style=&quot;line-height: 80%;&quot;&gt;&lt;span style=&quot;font-size: 13px;&quot;&gt;&lt;b&gt;Byte Enable&lt;br&gt;Logic&lt;/b&gt;&lt;/span&gt;&lt;/div&gt;" style="whiteSpace=wrap;html=1;shadow=1;fontSize=18;fillColor=#f5f5f5;strokeColor=#666666;align=center;" vertex="1" parent="iKwgrwwHFy8eXeqNAH09-1136">
          <mxGeometry x="311" y="150" width="80" height="40" as="geometry" />
        </mxCell>
        <mxCell id="iKwgrwwHFy8eXeqNAH09-1169" style="edgeStyle=orthogonalEdgeStyle;rounded=0;orthogonalLoop=1;jettySize=auto;html=1;entryX=0.75;entryY=0;entryDx=0;entryDy=0;" edge="1" parent="iKwgrwwHFy8eXeqNAH09-1136" source="iKwgrwwHFy8eXeqNAH09-1170" target="iKwgrwwHFy8eXeqNAH09-1155">
          <mxGeometry relative="1" as="geometry">
            <Array as="points">
              <mxPoint x="451" y="70" />
              <mxPoint x="131" y="70" />
            </Array>
          </mxGeometry>
        </mxCell>
        <mxCell id="iKwgrwwHFy8eXeqNAH09-1170" value="&lt;div style=&quot;line-height: 80%;&quot;&gt;&lt;span style=&quot;font-size: 13px;&quot;&gt;&lt;b&gt;Branch&lt;/b&gt;&lt;/span&gt;&lt;/div&gt;&lt;div style=&quot;line-height: 80%;&quot;&gt;&lt;span style=&quot;font-size: 13px;&quot;&gt;&lt;b&gt;Logic&lt;/b&gt;&lt;/span&gt;&lt;/div&gt;" style="whiteSpace=wrap;html=1;shadow=1;fontSize=18;fillColor=#f5f5f5;strokeColor=#666666;align=center;" vertex="1" parent="iKwgrwwHFy8eXeqNAH09-1136">
          <mxGeometry x="421" y="100" width="60" height="50" as="geometry" />
        </mxCell>
        <mxCell id="iKwgrwwHFy8eXeqNAH09-1171" style="edgeStyle=orthogonalEdgeStyle;rounded=0;orthogonalLoop=1;jettySize=auto;html=1;entryX=0;entryY=0.5;entryDx=0;entryDy=0;" edge="1" parent="iKwgrwwHFy8eXeqNAH09-1136" source="iKwgrwwHFy8eXeqNAH09-1172" target="iKwgrwwHFy8eXeqNAH09-1158">
          <mxGeometry relative="1" as="geometry">
            <Array as="points">
              <mxPoint x="11" y="230" />
              <mxPoint x="11" y="270" />
            </Array>
          </mxGeometry>
        </mxCell>
        <mxCell id="iKwgrwwHFy8eXeqNAH09-1172" value="" style="shape=waypoint;sketch=0;size=6;pointerEvents=1;points=[];fillColor=none;resizable=0;rotatable=0;perimeter=centerPerimeter;snapToPoint=1;" vertex="1" parent="iKwgrwwHFy8eXeqNAH09-1136">
          <mxGeometry x="1" y="220" width="20" height="20" as="geometry" />
        </mxCell>
        <mxCell id="iKwgrwwHFy8eXeqNAH09-1173" value="" style="shape=waypoint;sketch=0;size=6;pointerEvents=1;points=[];fillColor=none;resizable=0;rotatable=0;perimeter=centerPerimeter;snapToPoint=1;" vertex="1" parent="iKwgrwwHFy8eXeqNAH09-1136">
          <mxGeometry x="291" y="220" width="20" height="20" as="geometry" />
        </mxCell>
        <mxCell id="iKwgrwwHFy8eXeqNAH09-1174" style="edgeStyle=orthogonalEdgeStyle;rounded=0;orthogonalLoop=1;jettySize=auto;html=1;entryX=0;entryY=0.5;entryDx=0;entryDy=0;" edge="1" parent="iKwgrwwHFy8eXeqNAH09-1136" source="iKwgrwwHFy8eXeqNAH09-1175" target="iKwgrwwHFy8eXeqNAH09-1167">
          <mxGeometry relative="1" as="geometry">
            <Array as="points">
              <mxPoint x="291" y="100" />
            </Array>
          </mxGeometry>
        </mxCell>
        <mxCell id="iKwgrwwHFy8eXeqNAH09-1175" value="" style="shape=waypoint;sketch=0;size=6;pointerEvents=1;points=[];fillColor=none;resizable=0;rotatable=0;perimeter=centerPerimeter;snapToPoint=1;" vertex="1" parent="iKwgrwwHFy8eXeqNAH09-1136">
          <mxGeometry x="281" y="90" width="20" height="20" as="geometry" />
        </mxCell>
        <mxCell id="iKwgrwwHFy8eXeqNAH09-1176" style="edgeStyle=orthogonalEdgeStyle;rounded=0;orthogonalLoop=1;jettySize=auto;html=1;entryX=0.5;entryY=0;entryDx=0;entryDy=0;" edge="1" parent="iKwgrwwHFy8eXeqNAH09-1136" source="iKwgrwwHFy8eXeqNAH09-1177" target="iKwgrwwHFy8eXeqNAH09-1155">
          <mxGeometry relative="1" as="geometry">
            <mxPoint x="121" y="100" as="targetPoint" />
            <Array as="points">
              <mxPoint x="541" y="60" />
              <mxPoint x="111" y="60" />
            </Array>
          </mxGeometry>
        </mxCell>
        <mxCell id="iKwgrwwHFy8eXeqNAH09-1177" value="" style="shape=waypoint;sketch=0;size=6;pointerEvents=1;points=[];fillColor=none;resizable=0;rotatable=0;perimeter=centerPerimeter;snapToPoint=1;" vertex="1" parent="iKwgrwwHFy8eXeqNAH09-1136">
          <mxGeometry x="531" y="80" width="20" height="20" as="geometry" />
        </mxCell>
        <mxCell id="iKwgrwwHFy8eXeqNAH09-1178" value="" style="shape=waypoint;sketch=0;size=6;pointerEvents=1;points=[];fillColor=none;resizable=0;rotatable=0;perimeter=centerPerimeter;snapToPoint=1;" vertex="1" parent="iKwgrwwHFy8eXeqNAH09-1136">
          <mxGeometry x="281" y="125" width="20" height="20" as="geometry" />
        </mxCell>
        <mxCell id="iKwgrwwHFy8eXeqNAH09-1179" style="edgeStyle=orthogonalEdgeStyle;rounded=0;orthogonalLoop=1;jettySize=auto;html=1;entryX=0;entryY=0.5;entryDx=0;entryDy=0;jumpStyle=arc;" edge="1" parent="iKwgrwwHFy8eXeqNAH09-1136" source="iKwgrwwHFy8eXeqNAH09-1178" target="iKwgrwwHFy8eXeqNAH09-1170">
          <mxGeometry relative="1" as="geometry" />
        </mxCell>
        <mxCell id="iKwgrwwHFy8eXeqNAH09-1180" style="edgeStyle=orthogonalEdgeStyle;rounded=0;orthogonalLoop=1;jettySize=auto;html=1;entryX=1;entryY=0.25;entryDx=0;entryDy=0;" edge="1" parent="iKwgrwwHFy8eXeqNAH09-1136" source="iKwgrwwHFy8eXeqNAH09-1189" target="iKwgrwwHFy8eXeqNAH09-1168">
          <mxGeometry relative="1" as="geometry">
            <Array as="points" />
          </mxGeometry>
        </mxCell>
        <mxCell id="iKwgrwwHFy8eXeqNAH09-1181" value="" style="shape=waypoint;sketch=0;size=6;pointerEvents=1;points=[];fillColor=none;resizable=0;rotatable=0;perimeter=centerPerimeter;snapToPoint=1;" vertex="1" parent="iKwgrwwHFy8eXeqNAH09-1136">
          <mxGeometry x="531" y="115" width="20" height="20" as="geometry" />
        </mxCell>
        <mxCell id="iKwgrwwHFy8eXeqNAH09-1182" style="edgeStyle=orthogonalEdgeStyle;rounded=0;orthogonalLoop=1;jettySize=auto;html=1;entryX=1;entryY=0.5;entryDx=0;entryDy=0;jumpStyle=arc;" edge="1" parent="iKwgrwwHFy8eXeqNAH09-1136" source="iKwgrwwHFy8eXeqNAH09-1181" target="iKwgrwwHFy8eXeqNAH09-1167">
          <mxGeometry relative="1" as="geometry">
            <Array as="points">
              <mxPoint x="541" y="90" />
              <mxPoint x="411" y="90" />
              <mxPoint x="411" y="100" />
            </Array>
          </mxGeometry>
        </mxCell>
        <mxCell id="iKwgrwwHFy8eXeqNAH09-1183" style="edgeStyle=orthogonalEdgeStyle;rounded=0;orthogonalLoop=1;jettySize=auto;html=1;entryX=0;entryY=0.5;entryDx=0;entryDy=0;" edge="1" parent="iKwgrwwHFy8eXeqNAH09-1136" source="iKwgrwwHFy8eXeqNAH09-1184" target="iKwgrwwHFy8eXeqNAH09-1139">
          <mxGeometry relative="1" as="geometry" />
        </mxCell>
        <mxCell id="iKwgrwwHFy8eXeqNAH09-1184" value="" style="shape=waypoint;sketch=0;size=6;pointerEvents=1;points=[];fillColor=none;resizable=0;rotatable=0;perimeter=centerPerimeter;snapToPoint=1;" vertex="1" parent="iKwgrwwHFy8eXeqNAH09-1136">
          <mxGeometry x="281" y="160" width="20" height="20" as="geometry" />
        </mxCell>
        <mxCell id="iKwgrwwHFy8eXeqNAH09-1185" style="edgeStyle=orthogonalEdgeStyle;rounded=0;orthogonalLoop=1;jettySize=auto;html=1;entryX=0;entryY=0.5;entryDx=0;entryDy=0;jumpStyle=arc;" edge="1" parent="iKwgrwwHFy8eXeqNAH09-1136" source="iKwgrwwHFy8eXeqNAH09-1151" target="iKwgrwwHFy8eXeqNAH09-1163">
          <mxGeometry relative="1" as="geometry">
            <Array as="points">
              <mxPoint x="311" y="230" />
              <mxPoint x="311" y="230" />
            </Array>
          </mxGeometry>
        </mxCell>
        <mxCell id="iKwgrwwHFy8eXeqNAH09-1186" value="" style="endArrow=classic;html=1;rounded=0;exitX=0.5;exitY=0;exitDx=0;exitDy=0;entryX=0;entryY=0.75;entryDx=0;entryDy=0;edgeStyle=orthogonalEdgeStyle;" edge="1" parent="iKwgrwwHFy8eXeqNAH09-1136" source="iKwgrwwHFy8eXeqNAH09-1139" target="iKwgrwwHFy8eXeqNAH09-1162">
          <mxGeometry width="50" height="50" relative="1" as="geometry">
            <mxPoint x="311" y="370" as="sourcePoint" />
            <mxPoint x="361" y="320" as="targetPoint" />
            <Array as="points">
              <mxPoint x="314" y="355" />
              <mxPoint x="314" y="310" />
            </Array>
          </mxGeometry>
        </mxCell>
        <mxCell id="iKwgrwwHFy8eXeqNAH09-1187" style="edgeStyle=orthogonalEdgeStyle;rounded=0;orthogonalLoop=1;jettySize=auto;html=1;entryX=1;entryY=0.5;entryDx=0;entryDy=0;jumpStyle=arc;exitX=0.5;exitY=0;exitDx=0;exitDy=0;" edge="1" parent="iKwgrwwHFy8eXeqNAH09-1136" source="iKwgrwwHFy8eXeqNAH09-1165" target="iKwgrwwHFy8eXeqNAH09-1170">
          <mxGeometry relative="1" as="geometry">
            <Array as="points">
              <mxPoint x="541" y="125" />
            </Array>
          </mxGeometry>
        </mxCell>
        <mxCell id="iKwgrwwHFy8eXeqNAH09-1188" style="edgeStyle=orthogonalEdgeStyle;rounded=0;orthogonalLoop=1;jettySize=auto;html=1;entryX=0.75;entryY=1;entryDx=0;entryDy=0;exitX=1;exitY=0.5;exitDx=0;exitDy=0;jumpStyle=arc;" edge="1" parent="iKwgrwwHFy8eXeqNAH09-1136" source="iKwgrwwHFy8eXeqNAH09-1168" target="iKwgrwwHFy8eXeqNAH09-1139">
          <mxGeometry relative="1" as="geometry">
            <Array as="points">
              <mxPoint x="444" y="170" />
              <mxPoint x="444" y="410" />
              <mxPoint x="261" y="410" />
              <mxPoint x="261" y="375" />
            </Array>
          </mxGeometry>
        </mxCell>
        <mxCell id="iKwgrwwHFy8eXeqNAH09-1189" value="" style="shape=waypoint;sketch=0;size=6;pointerEvents=1;points=[];fillColor=none;resizable=0;rotatable=0;perimeter=centerPerimeter;snapToPoint=1;" vertex="1" parent="iKwgrwwHFy8eXeqNAH09-1136">
          <mxGeometry x="531" y="150" width="20" height="20" as="geometry" />
        </mxCell>
        <mxCell id="iKwgrwwHFy8eXeqNAH09-1190" value="" style="shape=waypoint;sketch=0;size=6;pointerEvents=1;points=[];fillColor=none;resizable=0;rotatable=0;perimeter=centerPerimeter;snapToPoint=1;" vertex="1" parent="iKwgrwwHFy8eXeqNAH09-1136">
          <mxGeometry x="1" y="260" width="20" height="20" as="geometry" />
        </mxCell>
        <mxCell id="iKwgrwwHFy8eXeqNAH09-1191" style="edgeStyle=orthogonalEdgeStyle;rounded=0;orthogonalLoop=1;jettySize=auto;html=1;entryX=0;entryY=0.5;entryDx=0;entryDy=0;jumpStyle=arc;" edge="1" parent="iKwgrwwHFy8eXeqNAH09-1136" source="iKwgrwwHFy8eXeqNAH09-1192" target="iKwgrwwHFy8eXeqNAH09-1212">
          <mxGeometry relative="1" as="geometry" />
        </mxCell>
        <mxCell id="iKwgrwwHFy8eXeqNAH09-1192" value="" style="shape=waypoint;sketch=0;size=6;pointerEvents=1;points=[];fillColor=none;resizable=0;rotatable=0;perimeter=centerPerimeter;snapToPoint=1;" vertex="1" parent="iKwgrwwHFy8eXeqNAH09-1136">
          <mxGeometry x="281" y="190" width="20" height="20" as="geometry" />
        </mxCell>
        <mxCell id="iKwgrwwHFy8eXeqNAH09-1193" style="edgeStyle=orthogonalEdgeStyle;rounded=0;orthogonalLoop=1;jettySize=auto;html=1;entryX=0;entryY=0.5;entryDx=0;entryDy=0;" edge="1" parent="iKwgrwwHFy8eXeqNAH09-1136" source="iKwgrwwHFy8eXeqNAH09-1194" target="iKwgrwwHFy8eXeqNAH09-1210">
          <mxGeometry relative="1" as="geometry">
            <Array as="points">
              <mxPoint x="491" y="200" />
            </Array>
          </mxGeometry>
        </mxCell>
        <mxCell id="iKwgrwwHFy8eXeqNAH09-1194" value="" style="shape=waypoint;sketch=0;size=6;pointerEvents=1;points=[];fillColor=none;resizable=0;rotatable=0;perimeter=centerPerimeter;snapToPoint=1;" vertex="1" parent="iKwgrwwHFy8eXeqNAH09-1136">
          <mxGeometry x="461" y="190" width="20" height="20" as="geometry" />
        </mxCell>
        <mxCell id="iKwgrwwHFy8eXeqNAH09-1195" style="rounded=0;orthogonalLoop=1;jettySize=auto;html=1;entryX=0;entryY=0.8;entryDx=0;entryDy=0;entryPerimeter=0;jumpStyle=arc;" edge="1" parent="iKwgrwwHFy8eXeqNAH09-1136" source="iKwgrwwHFy8eXeqNAH09-1212" target="iKwgrwwHFy8eXeqNAH09-1165">
          <mxGeometry relative="1" as="geometry">
            <mxPoint x="491" y="280" as="targetPoint" />
          </mxGeometry>
        </mxCell>
        <mxCell id="iKwgrwwHFy8eXeqNAH09-1196" value="" style="endArrow=classic;html=1;rounded=0;entryX=0;entryY=0.25;entryDx=0;entryDy=0;jumpStyle=arc;" edge="1" parent="iKwgrwwHFy8eXeqNAH09-1136" target="iKwgrwwHFy8eXeqNAH09-1165">
          <mxGeometry width="50" height="50" relative="1" as="geometry">
            <mxPoint x="401" y="225" as="sourcePoint" />
            <mxPoint x="421" y="225" as="targetPoint" />
          </mxGeometry>
        </mxCell>
        <mxCell id="iKwgrwwHFy8eXeqNAH09-1197" style="edgeStyle=orthogonalEdgeStyle;rounded=0;orthogonalLoop=1;jettySize=auto;html=1;entryX=0;entryY=0.5;entryDx=0;entryDy=0;jumpStyle=arc;exitX=1;exitY=0.25;exitDx=0;exitDy=0;" edge="1" parent="iKwgrwwHFy8eXeqNAH09-1136" source="iKwgrwwHFy8eXeqNAH09-1162" target="iKwgrwwHFy8eXeqNAH09-1213">
          <mxGeometry relative="1" as="geometry">
            <Array as="points">
              <mxPoint x="424" y="290" />
              <mxPoint x="424" y="280" />
            </Array>
            <mxPoint x="383.5" y="279.9999999999998" as="sourcePoint" />
            <mxPoint x="461" y="272.4999999999998" as="targetPoint" />
          </mxGeometry>
        </mxCell>
        <mxCell id="iKwgrwwHFy8eXeqNAH09-1198" value="" style="shape=waypoint;sketch=0;size=6;pointerEvents=1;points=[];fillColor=none;resizable=0;rotatable=0;perimeter=centerPerimeter;snapToPoint=1;" vertex="1" parent="iKwgrwwHFy8eXeqNAH09-1136">
          <mxGeometry x="231" y="325" width="20" height="20" as="geometry" />
        </mxCell>
        <mxCell id="iKwgrwwHFy8eXeqNAH09-1199" style="edgeStyle=orthogonalEdgeStyle;rounded=0;orthogonalLoop=1;jettySize=auto;html=1;entryX=0.25;entryY=1;entryDx=0;entryDy=0;" edge="1" parent="iKwgrwwHFy8eXeqNAH09-1136" source="iKwgrwwHFy8eXeqNAH09-1211" target="iKwgrwwHFy8eXeqNAH09-1165">
          <mxGeometry relative="1" as="geometry" />
        </mxCell>
        <mxCell id="iKwgrwwHFy8eXeqNAH09-1200" style="edgeStyle=orthogonalEdgeStyle;rounded=0;orthogonalLoop=1;jettySize=auto;html=1;entryX=0.25;entryY=1;entryDx=0;entryDy=0;exitX=0.5;exitY=1;exitDx=0;exitDy=0;jumpStyle=arc;" edge="1" parent="iKwgrwwHFy8eXeqNAH09-1136" source="iKwgrwwHFy8eXeqNAH09-1158">
          <mxGeometry relative="1" as="geometry">
            <mxPoint x="101" y="280" as="sourcePoint" />
            <mxPoint x="281" y="345" as="targetPoint" />
            <Array as="points">
              <mxPoint x="71" y="345" />
            </Array>
          </mxGeometry>
        </mxCell>
        <mxCell id="iKwgrwwHFy8eXeqNAH09-1201" style="edgeStyle=orthogonalEdgeStyle;rounded=0;orthogonalLoop=1;jettySize=auto;html=1;entryX=0.75;entryY=1;entryDx=0;entryDy=0;jumpStyle=arc;" edge="1" parent="iKwgrwwHFy8eXeqNAH09-1136" source="iKwgrwwHFy8eXeqNAH09-1190" target="iKwgrwwHFy8eXeqNAH09-1212">
          <mxGeometry relative="1" as="geometry">
            <Array as="points">
              <mxPoint x="11" y="400" />
              <mxPoint x="434" y="400" />
              <mxPoint x="434" y="295" />
            </Array>
          </mxGeometry>
        </mxCell>
        <mxCell id="iKwgrwwHFy8eXeqNAH09-1202" style="edgeStyle=orthogonalEdgeStyle;rounded=0;orthogonalLoop=1;jettySize=auto;html=1;entryX=0.25;entryY=1;entryDx=0;entryDy=0;jumpStyle=arc;exitX=1;exitY=0.5;exitDx=0;exitDy=0;" edge="1" parent="iKwgrwwHFy8eXeqNAH09-1136" source="iKwgrwwHFy8eXeqNAH09-1162" target="iKwgrwwHFy8eXeqNAH09-1210">
          <mxGeometry relative="1" as="geometry">
            <Array as="points">
              <mxPoint x="424" y="300" />
              <mxPoint x="424" y="330" />
            </Array>
          </mxGeometry>
        </mxCell>
        <mxCell id="iKwgrwwHFy8eXeqNAH09-1203" value="&lt;font style=&quot;font-size: 24px;&quot;&gt;&lt;b&gt;[RV32I46F] &lt;br&gt;46F Architecture&lt;/b&gt;&lt;/font&gt;" style="text;html=1;align=left;verticalAlign=middle;whiteSpace=wrap;rounded=0;" vertex="1" parent="iKwgrwwHFy8eXeqNAH09-1136">
          <mxGeometry x="1" width="320" height="60" as="geometry" />
        </mxCell>
        <mxCell id="iKwgrwwHFy8eXeqNAH09-1204" style="edgeStyle=orthogonalEdgeStyle;rounded=0;orthogonalLoop=1;jettySize=auto;html=1;entryX=0;entryY=0.5;entryDx=0;entryDy=0;exitX=1;exitY=0.25;exitDx=0;exitDy=0;jumpStyle=arc;" edge="1" parent="iKwgrwwHFy8eXeqNAH09-1136" source="iKwgrwwHFy8eXeqNAH09-1205" target="iKwgrwwHFy8eXeqNAH09-1211">
          <mxGeometry relative="1" as="geometry" />
        </mxCell>
        <mxCell id="iKwgrwwHFy8eXeqNAH09-1205" value="&lt;div style=&quot;line-height: 80%;&quot;&gt;&lt;span style=&quot;font-size: 13px;&quot;&gt;&lt;b&gt;CSR&lt;/b&gt;&lt;/span&gt;&lt;/div&gt;&lt;div style=&quot;line-height: 80%;&quot;&gt;&lt;span style=&quot;font-size: 13px;&quot;&gt;&lt;b&gt;File&lt;/b&gt;&lt;/span&gt;&lt;/div&gt;" style="whiteSpace=wrap;html=1;shadow=1;fontSize=18;fillColor=#f5f5f5;strokeColor=#666666;align=center;" vertex="1" parent="iKwgrwwHFy8eXeqNAH09-1136">
          <mxGeometry x="353.5" y="330" width="60" height="60" as="geometry" />
        </mxCell>
        <mxCell id="iKwgrwwHFy8eXeqNAH09-1206" style="edgeStyle=orthogonalEdgeStyle;rounded=0;orthogonalLoop=1;jettySize=auto;html=1;jumpStyle=arc;" edge="1" parent="iKwgrwwHFy8eXeqNAH09-1136" source="iKwgrwwHFy8eXeqNAH09-1207">
          <mxGeometry relative="1" as="geometry">
            <mxPoint x="353.5" y="340" as="targetPoint" />
            <Array as="points">
              <mxPoint x="324" y="300" />
              <mxPoint x="324" y="340" />
            </Array>
          </mxGeometry>
        </mxCell>
        <mxCell id="iKwgrwwHFy8eXeqNAH09-1207" value="" style="shape=waypoint;sketch=0;size=6;pointerEvents=1;points=[];fillColor=none;resizable=0;rotatable=0;perimeter=centerPerimeter;snapToPoint=1;" vertex="1" parent="iKwgrwwHFy8eXeqNAH09-1136">
          <mxGeometry x="281" y="290" width="20" height="20" as="geometry" />
        </mxCell>
        <mxCell id="iKwgrwwHFy8eXeqNAH09-1208" value="" style="shape=waypoint;sketch=0;size=6;pointerEvents=1;points=[];fillColor=none;resizable=0;rotatable=0;perimeter=centerPerimeter;snapToPoint=1;" vertex="1" parent="iKwgrwwHFy8eXeqNAH09-1136">
          <mxGeometry x="321" y="410" width="20" height="20" as="geometry" />
        </mxCell>
        <mxCell id="iKwgrwwHFy8eXeqNAH09-1209" value="" style="shape=waypoint;sketch=0;size=6;pointerEvents=1;points=[];fillColor=none;resizable=0;rotatable=0;perimeter=centerPerimeter;snapToPoint=1;" vertex="1" parent="iKwgrwwHFy8eXeqNAH09-1136">
          <mxGeometry x="313.5" y="420" width="20" height="20" as="geometry" />
        </mxCell>
        <mxCell id="iKwgrwwHFy8eXeqNAH09-1210" value="" style="shape=trapezoid;perimeter=trapezoidPerimeter;whiteSpace=wrap;html=1;fixedSize=1;shadow=1;strokeColor=#666666;align=center;verticalAlign=middle;fontFamily=Helvetica;fontSize=18;fillColor=#f5f5f5;rotation=90;container=0;fontColor=#000000;" vertex="1" parent="iKwgrwwHFy8eXeqNAH09-1136">
          <mxGeometry x="461" y="335" width="60" height="20" as="geometry" />
        </mxCell>
        <mxCell id="iKwgrwwHFy8eXeqNAH09-1211" value="&lt;div style=&quot;line-height: 90%;&quot;&gt;&lt;b style=&quot;font-size: 10px; background-color: transparent; color: light-dark(rgb(0, 0, 0), rgb(255, 255, 255));&quot;&gt;src&lt;/b&gt;&lt;/div&gt;&lt;div style=&quot;line-height: 90%;&quot;&gt;&lt;span style=&quot;font-size: 10px;&quot;&gt;&lt;b&gt;B&lt;/b&gt;&lt;/span&gt;&lt;/div&gt;" style="text;html=1;align=center;verticalAlign=middle;whiteSpace=wrap;rounded=0;" vertex="1" parent="iKwgrwwHFy8eXeqNAH09-1136">
          <mxGeometry x="481" y="330" width="20" height="30" as="geometry" />
        </mxCell>
        <mxCell id="iKwgrwwHFy8eXeqNAH09-1212" value="" style="shape=trapezoid;perimeter=trapezoidPerimeter;whiteSpace=wrap;html=1;fixedSize=1;shadow=1;strokeColor=#666666;align=center;verticalAlign=middle;fontFamily=Helvetica;fontSize=18;fillColor=#f5f5f5;rotation=90;container=0;fontColor=#000000;" vertex="1" parent="iKwgrwwHFy8eXeqNAH09-1136">
          <mxGeometry x="441" y="270" width="60" height="20" as="geometry" />
        </mxCell>
        <mxCell id="iKwgrwwHFy8eXeqNAH09-1213" value="&lt;div style=&quot;line-height: 90%;&quot;&gt;&lt;b style=&quot;font-size: 10px; background-color: transparent; color: light-dark(rgb(0, 0, 0), rgb(255, 255, 255));&quot;&gt;src&lt;/b&gt;&lt;/div&gt;&lt;div style=&quot;line-height: 90%;&quot;&gt;&lt;span style=&quot;font-size: 10px;&quot;&gt;&lt;b&gt;A&lt;/b&gt;&lt;/span&gt;&lt;/div&gt;" style="text;html=1;align=center;verticalAlign=middle;whiteSpace=wrap;rounded=0;" vertex="1" parent="iKwgrwwHFy8eXeqNAH09-1136">
          <mxGeometry x="461" y="265" width="20" height="30" as="geometry" />
        </mxCell>
        <mxCell id="iKwgrwwHFy8eXeqNAH09-1214" style="edgeStyle=orthogonalEdgeStyle;rounded=0;orthogonalLoop=1;jettySize=auto;html=1;entryX=0.153;entryY=1.002;entryDx=0;entryDy=0;entryPerimeter=0;" edge="1" parent="iKwgrwwHFy8eXeqNAH09-1136" source="iKwgrwwHFy8eXeqNAH09-1215" target="iKwgrwwHFy8eXeqNAH09-1212">
          <mxGeometry relative="1" as="geometry">
            <mxPoint x="461.5" y="260" as="targetPoint" />
            <Array as="points">
              <mxPoint x="434" y="255" />
              <mxPoint x="434" y="260" />
              <mxPoint x="461" y="260" />
            </Array>
          </mxGeometry>
        </mxCell>
        <mxCell id="iKwgrwwHFy8eXeqNAH09-1215" value="" style="shape=waypoint;sketch=0;size=6;pointerEvents=1;points=[];fillColor=none;resizable=0;rotatable=0;perimeter=centerPerimeter;snapToPoint=1;" vertex="1" parent="iKwgrwwHFy8eXeqNAH09-1136">
          <mxGeometry x="291" y="245" width="20" height="20" as="geometry" />
        </mxCell>
        <mxCell id="iKwgrwwHFy8eXeqNAH09-1216" value="&lt;div style=&quot;line-height: 90%;&quot;&gt;&lt;font style=&quot;font-size: 10px;&quot;&gt;&lt;b&gt;Reg&lt;/b&gt;&lt;/font&gt;&lt;div&gt;&lt;font style=&quot;font-size: 10px;&quot;&gt;&lt;b&gt;Src&lt;/b&gt;&lt;/font&gt;&lt;/div&gt;&lt;/div&gt;" style="text;html=1;align=center;verticalAlign=middle;whiteSpace=wrap;rounded=0;" vertex="1" parent="iKwgrwwHFy8eXeqNAH09-1136">
          <mxGeometry x="261" y="340" width="60" height="30" as="geometry" />
        </mxCell>
        <mxCell id="iKwgrwwHFy8eXeqNAH09-1217" value="" style="shape=waypoint;sketch=0;size=6;pointerEvents=1;points=[];fillColor=none;resizable=0;rotatable=0;perimeter=centerPerimeter;snapToPoint=1;" vertex="1" parent="iKwgrwwHFy8eXeqNAH09-1136">
          <mxGeometry x="413.5" y="335" width="20" height="20" as="geometry" />
        </mxCell>
      </root>
    </mxGraphModel>
  </diagram>
</mxfile>
